<svg width="30" height="31" viewBox="0 0 30 31" fill="none" xmlns="http://www.w3.org/2000/svg">
<path d="M1.33398 10.9582H28.9321M7.46691 1.75879V4.82525M22.7992 1.75879V4.82525M6.24032 29.3569H24.0258C25.7432 29.3569 26.6019 29.3569 27.2578 29.0227C27.8348 28.7288 28.304 28.2596 28.5979 27.6826C28.9321 27.0267 28.9321 26.168 28.9321 24.4506V9.73159C28.9321 8.0142 28.9321 7.15551 28.5979 6.49957C28.304 5.92257 27.8348 5.45346 27.2578 5.15948C26.6019 4.82525 25.7432 4.82525 24.0258 4.82525H6.24032C4.52295 4.82525 3.66425 4.82525 3.0083 5.15948C2.4313 5.45346 1.96219 5.92257 1.66821 6.49957C1.33398 7.15551 1.33398 8.0142 1.33398 9.73159V24.4506C1.33398 26.168 1.33398 27.0267 1.66821 27.6826C1.96219 28.2596 2.4313 28.7288 3.0083 29.0227C3.66425 29.3569 4.52293 29.3569 6.24032 29.3569Z" stroke="black" stroke-width="2" stroke-linecap="round" stroke-linejoin="round"/>
</svg>
