<svg width="25" height="25" viewBox="0 0 25 25" fill="none" xmlns="http://www.w3.org/2000/svg">
<path d="M12.1052 2.86426C6.58523 2.86426 2.11523 7.34426 2.11523 12.8643C2.11523 18.3843 6.58523 22.8643 12.1052 22.8643C17.6352 22.8643 22.1152 18.3843 22.1152 12.8643C22.1152 7.34426 17.6352 2.86426 12.1052 2.86426ZM12.1152 20.8643C7.69523 20.8643 4.11523 17.2843 4.11523 12.8643C4.11523 8.44426 7.69523 4.86426 12.1152 4.86426C16.5352 4.86426 20.1152 8.44426 20.1152 12.8643C20.1152 17.2843 16.5352 20.8643 12.1152 20.8643ZM12.6152 7.86426H11.1152V13.8643L16.3652 17.0143L17.1152 15.7843L12.6152 13.1143V7.86426Z" fill="black" fill-opacity="0.9"/>
</svg>
