<svg width="25" height="25" viewBox="0 0 25 25" fill="none" xmlns="http://www.w3.org/2000/svg">
<path d="M13.2137 24.1914H11.0171V0.0283203H13.2137V24.1914ZM8.82041 19.7981H4.42712V4.42161H8.82041V2.22497H4.42712C3.20798 2.22497 2.23047 3.20248 2.23047 4.42161V19.7981C2.23047 21.0173 3.21896 21.9948 4.42712 21.9948H8.82041V19.7981ZM19.8036 6.61826V8.81491H22.0003V6.61826H19.8036ZM19.8036 4.42161H22.0003C22.0003 3.20248 21.0118 2.22497 19.8036 2.22497V4.42161ZM22.0003 15.4048H19.8036V17.6015H22.0003V15.4048ZM19.8036 11.0116V13.2082H22.0003V11.0116H19.8036ZM17.607 2.22497H15.4103V4.42161H17.607V2.22497ZM19.8036 21.9948C21.0228 21.9948 22.0003 21.0173 22.0003 19.7981H19.8036V21.9948ZM17.607 19.7981H15.4103V21.9948H17.607V19.7981Z" fill="black"/>
</svg>
