<svg width="37" height="34" viewBox="0 0 37 34" fill="none" xmlns="http://www.w3.org/2000/svg">
<g clip-path="url(#clip0_120_2200)">
<path d="M27.0528 1.8999L36.0527 7.58091L27.0528 13.1784L18.0528 7.58091L27.0528 1.8999ZM9.05284 1.8999L18.0528 7.58091L9.05284 13.1784L0.0528755 7.58091L9.05284 1.8999ZM36.0527 18.8594L27.0528 24.5404L18.0528 18.8594L27.0528 13.1784L36.0527 18.8594ZM9.05284 13.1784L18.0528 18.8594L9.05284 24.5404L0.0528755 18.8594L9.05284 13.1784ZM27.0528 26.3784L18.0528 32.0594L9.05284 26.3784L18.0528 20.7809L27.0528 26.3784Z" fill="#0062FF"/>
</g>
<defs>
<clipPath id="clip0_120_2200">
<rect width="36" height="33" fill="white" transform="matrix(-1 0 0 1 36.0527 0.479492)"/>
</clipPath>
</defs>
</svg>
