<svg width="31" height="31" viewBox="0 0 31 31" fill="none" xmlns="http://www.w3.org/2000/svg">
<g clip-path="url(#clip0_120_2387)">
<path d="M23.4574 7.17676H7.66797V22.9662H23.4574V7.17676Z" fill="white"/>
<path d="M23.457 30.0713L30.5623 22.966L27.0097 22.3599L23.457 22.966L22.8086 26.2156L23.457 30.0713Z" fill="#EA4335"/>
<path d="M0.5625 22.966V27.7028C0.5625 29.0114 1.62237 30.0713 2.93092 30.0713H7.66776L8.39729 26.5186L7.66776 22.966L3.79678 22.3599L0.5625 22.966Z" fill="#188038"/>
<path d="M30.5623 7.17655V2.43971C30.5623 1.13116 29.5024 0.0712891 28.1939 0.0712891H23.457C23.0247 1.8333 22.8086 3.13001 22.8086 3.96141C22.8086 4.79281 23.0247 5.86453 23.457 7.17655C25.0285 7.62654 26.2127 7.85154 27.0097 7.85154C27.8066 7.85154 28.9909 7.62654 30.5623 7.17655Z" fill="#1967D2"/>
<path d="M30.5623 7.17676H23.457V22.9662H30.5623V7.17676Z" fill="#FBBC04"/>
<path d="M23.4574 22.9658H7.66797V30.0711H23.4574V22.9658Z" fill="#34A853"/>
<path d="M23.4572 0.0712891H2.93092C1.62237 0.0712891 0.5625 1.13116 0.5625 2.43971V22.966H7.66776V7.17655H23.4572V0.0712891Z" fill="#4285F4"/>
<path d="M10.9073 19.4254C10.3171 19.0267 9.90857 18.4445 9.68555 17.6748L11.0553 17.1103C11.1796 17.584 11.3967 17.9511 11.7066 18.2116C12.0145 18.4721 12.3895 18.6004 12.8277 18.6004C13.2757 18.6004 13.6605 18.4642 13.9823 18.1919C14.304 17.9195 14.4658 17.5721 14.4658 17.1517C14.4658 16.7215 14.2961 16.3702 13.9566 16.0978C13.6171 15.8254 13.1908 15.6892 12.6816 15.6892H11.8902V14.3333H12.6007C13.0388 14.3333 13.4079 14.2149 13.7079 13.978C14.0079 13.7412 14.1579 13.4175 14.1579 13.005C14.1579 12.6379 14.0237 12.3458 13.7553 12.1267C13.4869 11.9077 13.1474 11.7971 12.7349 11.7971C12.3323 11.7971 12.0125 11.9037 11.7757 12.1188C11.539 12.3345 11.361 12.6069 11.2586 12.9103L9.90265 12.3458C10.0823 11.8366 10.4119 11.3866 10.8954 10.9978C11.379 10.609 11.9967 10.4136 12.7467 10.4136C13.3013 10.4136 13.8007 10.5202 14.2428 10.7353C14.6849 10.9504 15.0323 11.2484 15.2829 11.6274C15.5336 12.0083 15.6579 12.4346 15.6579 12.9083C15.6579 13.3919 15.5415 13.8004 15.3086 14.1359C15.0757 14.4715 14.7895 14.728 14.45 14.9077V14.9886C14.8884 15.1693 15.2691 15.4661 15.5513 15.8471C15.8375 16.232 15.9816 16.6919 15.9816 17.2287C15.9816 17.7655 15.8454 18.2452 15.573 18.6655C15.3007 19.0859 14.9237 19.4175 14.4461 19.6583C13.9665 19.8991 13.4277 20.0215 12.8296 20.0215C12.1369 20.0234 11.4974 19.8241 10.9073 19.4254ZM19.3211 12.628L17.8171 13.7155L17.0652 12.5748L19.7632 10.6287H20.7974V19.8083H19.3211V12.628Z" fill="#4285F4"/>
</g>
<defs>
<clipPath id="clip0_120_2387">
<rect width="30" height="30" fill="white" transform="translate(0.5625 0.0712891)"/>
</clipPath>
</defs>
</svg>
