<svg width="31" height="32" viewBox="0 0 31 32" fill="none" xmlns="http://www.w3.org/2000/svg">
<g clip-path="url(#clip0_120_2188)">
<path d="M7.55273 7.52295C11.693 7.52295 15.0527 10.9947 15.0527 15.2729V15.9795H0.736523C0.358594 15.9795 0.0527344 15.6635 0.0527344 15.2729C0.0527344 10.9947 3.4125 7.52295 7.55273 7.52295Z" fill="#FBBB05"/>
<path d="M23.2365 8.22949C23.2365 12.5077 19.8768 15.9795 15.7365 15.9795H15.0527V1.18607C15.0527 0.795547 15.3586 0.479492 15.7365 0.479492C19.8768 0.479492 23.2365 3.95125 23.2365 8.22949Z" fill="#E94335"/>
<path d="M22.5527 24.4361C18.4125 24.4361 15.0527 20.9643 15.0527 16.6861V15.9795H29.3689C29.7469 15.9795 30.0527 16.2955 30.0527 16.6861C30.0527 20.9643 26.693 24.4361 22.5527 24.4361Z" fill="#4285F4"/>
<path d="M6.86914 23.7295C6.86914 19.4512 10.2289 15.9795 14.3691 15.9795H15.0529V30.7729C15.0529 31.1634 14.7471 31.4795 14.3691 31.4795C10.2289 31.4795 6.86914 28.0077 6.86914 23.7295Z" fill="#0F9D58"/>
</g>
<defs>
<clipPath id="clip0_120_2188">
<rect width="30" height="31" fill="white" transform="translate(0.0527344 0.479492)"/>
</clipPath>
</defs>
</svg>
