<svg width="33" height="30" viewBox="0 0 33 30" fill="none" xmlns="http://www.w3.org/2000/svg">
<path d="M25.3038 3.71777L22.8277 5.074L21.6016 7.40741L22.8277 10.262L25.1491 12.7612L27.6609 11.3695L29.2025 8.72218L27.6609 5.44711L25.3038 3.71777Z" fill="#0066DA"/>
<path d="M15.7138 13.2588L21.6005 7.40159C23.3326 8.71044 24.6064 10.5878 25.148 12.7554L17.0709 20.798C16.3447 21.5205 15.1662 21.5205 14.44 20.798L8.99378 15.379C8.41047 14.7986 8.41047 13.8629 8.99378 13.2884L11.3151 10.9787C11.8984 10.3983 12.8389 10.3983 13.4163 10.9787L15.7138 13.2588ZM31.8145 4.03176L29.4515 1.68058C28.8741 1.10611 27.9277 1.10611 27.3503 1.68058L25.3028 3.71788C26.9396 5.08002 28.2729 6.78567 29.2015 8.72228L31.8145 6.12236C32.3978 5.54789 32.3978 4.60623 31.8145 4.03176ZM25.4278 15.0711C25.4278 20.3894 21.0946 24.6949 15.7555 24.6949C10.4164 24.6949 6.08316 20.3894 6.08316 15.0711C6.08316 9.75277 10.4104 5.44721 15.7555 5.44721C17.9518 5.44721 19.9756 6.17566 21.6005 7.40752L25.3028 3.7238C22.7195 1.56214 19.3923 0.265137 15.7555 0.265137C7.5355 0.265137 0.875 6.89227 0.875 15.0711C0.875 23.2499 7.5355 29.877 15.7555 29.877C23.9754 29.877 30.6359 23.2499 30.6359 15.0711C30.6359 12.8028 30.1181 10.6471 29.2015 8.72228L25.148 12.7613C25.3266 13.5016 25.4278 14.2775 25.4278 15.0711Z" fill="#2684FC"/>
</svg>
