<svg width="25" height="25" viewBox="0 0 25 25" fill="none" xmlns="http://www.w3.org/2000/svg">
<path d="M23.1152 12.0435C23.1152 18.1186 18.1903 23.0435 12.1152 23.0435C6.0401 23.0435 1.11523 18.1186 1.11523 12.0435C1.11523 5.96833 6.0401 1.04346 12.1152 1.04346C18.1903 1.04346 23.1152 5.96833 23.1152 12.0435ZM3.12206 12.0435C3.12206 17.0103 7.14844 21.0367 12.1152 21.0367C17.082 21.0367 21.1084 17.0103 21.1084 12.0435C21.1084 7.07667 17.082 3.05029 12.1152 3.05029C7.14844 3.05029 3.12206 7.07667 3.12206 12.0435Z" fill="#0F0F0F"/>
<path d="M13.6152 18.0435C13.6152 18.8719 12.9436 19.5435 12.1152 19.5435C11.2868 19.5435 10.6152 18.8719 10.6152 18.0435C10.6152 17.2151 11.2868 16.5435 12.1152 16.5435C12.9436 16.5435 13.6152 17.2151 13.6152 18.0435Z" fill="#0F0F0F"/>
<path d="M11.1152 12.0435V14.0435C11.1152 14.0435 11.1152 15.0435 12.1152 15.0435C13.1152 15.0435 13.1152 14.0435 13.1152 14.0435V12.0435C13.1152 12.0435 13.5944 11.9064 13.7781 11.8318C13.7781 11.8318 14.1121 11.7126 14.3459 11.5331C14.5798 11.3537 14.7913 11.1405 14.9806 10.8938C15.181 10.647 15.3369 10.361 15.4482 10.0357C15.5595 9.71039 15.6152 9.44726 15.6152 9.04346C15.6152 8.37047 15.4649 7.68021 15.1643 7.17546C14.8748 6.6595 14.4628 6.26132 13.9284 5.98091C13.394 5.68928 12.7705 5.54346 12.0579 5.54346C11.6126 5.54346 11.2173 5.59954 10.8722 5.71171C10.527 5.81266 10.2209 5.95286 9.95368 6.13233C9.6976 6.30058 9.48049 6.49126 9.30235 6.70437C9.13535 6.90627 9.00174 7.10256 8.90153 7.29324C8.80133 7.48392 8.73453 7.65216 8.70113 7.79798C8.63432 8.01109 8.60649 8.18495 8.61762 8.31955C8.63989 8.45415 8.70669 8.56631 8.81803 8.65604C8.92937 8.74577 9.10194 8.84111 9.33575 8.94206C9.5807 9.02058 9.76997 9.04862 9.90358 9.02619C10.0483 9.00375 10.1652 8.93645 10.2543 8.82429C10.2543 8.82429 10.729 8.14915 10.8626 8.01455C11.0074 7.86874 11.1855 7.75658 11.3971 7.67806C11.6086 7.58833 11.848 7.54346 12.1152 7.54346C12.6942 7.54346 13.1228 7.68367 13.4012 7.96408C13.6906 8.23328 13.7781 8.45975 13.7781 8.97571C13.7781 9.32342 13.7169 9.60384 13.5944 9.81695C13.4719 10.0301 13.3105 10.204 13.1101 10.3386C13.1101 10.3386 12.8379 10.4426 12.6152 10.5435C12.4037 10.6332 12.0153 10.7816 11.8149 10.8938C11.6256 10.9947 11.5195 11.1008 11.3971 11.2579C11.2746 11.4149 11.1152 11.7743 11.1152 12.0435Z" fill="#0F0F0F"/>
</svg>
