<svg width="25" height="25" viewBox="0 0 25 25" fill="none" xmlns="http://www.w3.org/2000/svg">
<path fill-rule="evenodd" clip-rule="evenodd" d="M12.562 4.86265C11.9753 4.75936 11.3708 4.86277 10.8517 5.15524C10.3327 5.44771 9.93109 5.91114 9.71545 6.46655C9.49981 7.02195 9.48345 7.63495 9.66917 8.20107C9.85489 8.76718 10.2312 9.25137 10.7339 9.5711C10.9257 9.69341 11.0611 9.88686 11.1104 10.1089C11.1596 10.331 11.1187 10.5636 10.9966 10.7555L7.63043 16.045C7.80523 16.38 7.8646 16.7633 7.79935 17.1355C7.73409 17.5077 7.54785 17.8479 7.26951 18.1035C6.99117 18.359 6.63629 18.5156 6.2599 18.5489C5.88351 18.5822 5.50665 18.4904 5.18776 18.2877C4.86887 18.085 4.62578 17.7827 4.49619 17.4278C4.36659 17.0728 4.35773 16.6851 4.47099 16.3246C4.58424 15.9641 4.81328 15.651 5.12258 15.434C5.43188 15.2169 5.80416 15.108 6.18168 15.1241L9.13412 10.4852C8.6015 9.97063 8.2111 9.32702 8.00087 8.61694C7.79065 7.90685 7.76777 7.15444 7.93445 6.43289C8.10113 5.71134 8.4517 5.0452 8.95206 4.49926C9.45242 3.95332 10.0856 3.54615 10.7899 3.31736C11.4942 3.08857 12.2457 3.04594 12.9714 3.19361C13.6971 3.34129 14.3722 3.67424 14.9311 4.1601C15.49 4.64596 15.9136 5.26818 16.1609 5.96625C16.4081 6.66433 16.4704 7.41449 16.3418 8.1438C16.3222 8.25482 16.2809 8.36089 16.2203 8.45595C16.1597 8.55101 16.081 8.63321 15.9886 8.69784C15.8963 8.76248 15.7921 8.80829 15.682 8.83265C15.5719 8.85702 15.4581 8.85947 15.3471 8.83986C15.2361 8.82024 15.13 8.77896 15.035 8.71835C14.9399 8.65775 14.8577 8.57902 14.7931 8.48665C14.7284 8.39428 14.6826 8.29008 14.6583 8.18001C14.6339 8.06994 14.6314 7.95614 14.6511 7.84512C14.7696 7.17273 14.6161 6.4808 14.2245 5.9215C13.833 5.3622 13.2344 4.98133 12.562 4.86265ZM10.3992 7.39797C10.3994 7.13789 10.4587 6.88125 10.5726 6.64743C10.6865 6.41362 10.852 6.20875 11.0567 6.0483C11.2614 5.88784 11.4999 5.776 11.7541 5.72121C12.0084 5.66642 12.2718 5.67012 12.5244 5.73203C12.777 5.79395 13.0122 5.91245 13.2123 6.0786C13.4124 6.24475 13.5721 6.45419 13.6794 6.69111C13.7867 6.92803 13.8387 7.18623 13.8316 7.44622C13.8245 7.7062 13.7584 7.96117 13.6383 8.19186L16.5907 12.8308C17.2971 12.5605 18.0623 12.4817 18.8089 12.6023C19.5554 12.7229 20.2569 13.0387 20.8422 13.5177C21.4274 13.9966 21.8758 14.6218 22.1417 15.3297C22.4076 16.0377 22.4817 16.8034 22.3565 17.5492C22.2313 18.295 21.9112 18.9945 21.4287 19.5769C20.9461 20.1592 20.3183 20.6036 19.6087 20.8652C18.8991 21.1268 18.1329 21.1962 17.3879 21.0664C16.6428 20.9366 15.9453 20.6122 15.366 20.1261C15.197 19.9782 15.0927 19.77 15.0755 19.5462C15.0582 19.3223 15.1293 19.1006 15.2736 18.9286C15.4179 18.7566 15.6238 18.648 15.8473 18.626C16.0707 18.6041 16.2939 18.6705 16.4689 18.8112C16.8334 19.1168 17.2755 19.3155 17.746 19.3852C18.2166 19.4548 18.6973 19.3928 19.1347 19.2059C19.5722 19.019 19.9493 18.7146 20.2242 18.3264C20.4992 17.9382 20.6612 17.4814 20.6924 17.0068C20.7236 16.5321 20.6226 16.058 20.4007 15.6373C20.1789 15.2165 19.8448 14.8654 19.4355 14.6229C19.0262 14.3804 18.5578 14.2561 18.0822 14.2637C17.6065 14.2712 17.1423 14.4104 16.7409 14.6658C16.5489 14.7878 16.3163 14.8286 16.0942 14.7792C15.8721 14.7298 15.6787 14.5942 15.5565 14.4023L12.1895 9.11278C11.9581 9.12274 11.7271 9.08577 11.5104 9.00408C11.2936 8.9224 11.0957 8.79769 10.9284 8.63748C10.7611 8.47726 10.628 8.28485 10.5371 8.07183C10.4461 7.85881 10.3992 7.62959 10.3992 7.39797ZM5.74053 13.32C5.81818 13.5339 5.80773 13.7698 5.71149 13.976C5.61525 14.1821 5.44109 14.3416 5.22728 14.4194C4.78475 14.5807 4.39493 14.8602 4.10023 15.2276C3.80553 15.595 3.61725 16.0362 3.55588 16.5032C3.49451 16.9702 3.5624 17.445 3.75216 17.8761C3.94193 18.3072 4.24629 18.6779 4.63214 18.948C5.01798 19.2181 5.47052 19.3772 5.9405 19.408C6.41049 19.4387 6.87991 19.34 7.29767 19.1225C7.71544 18.905 8.06555 18.5771 8.3099 18.1745C8.55426 17.7718 8.68348 17.3099 8.68353 16.8389C8.68353 16.6113 8.77395 16.393 8.93491 16.232C9.09586 16.0711 9.31417 15.9806 9.54179 15.9806H16.6362C16.8252 15.6534 17.1168 15.3976 17.4659 15.253C17.815 15.1084 18.2021 15.0831 18.5671 15.1809C18.9321 15.2787 19.2546 15.4942 19.4846 15.7939C19.7146 16.0937 19.8393 16.461 19.8393 16.8389C19.8393 17.2168 19.7146 17.5841 19.4846 17.8839C19.2546 18.1836 18.9321 18.3991 18.5671 18.4969C18.2021 18.5947 17.815 18.5694 17.4659 18.4248C17.1168 18.2802 16.8252 18.0244 16.6362 17.6972H10.3134C10.1637 18.4304 9.82491 19.1118 9.33056 19.6737C8.83622 20.2355 8.20353 20.6584 7.4953 20.9002C6.78706 21.142 6.0279 21.1944 5.29316 21.0521C4.55842 20.9099 3.87365 20.578 3.30681 20.0894C2.73997 19.6008 2.31077 18.9724 2.06181 18.2666C1.81284 17.5609 1.75277 16.8023 1.88756 16.0661C2.02234 15.33 2.34729 14.6419 2.83016 14.0702C3.31303 13.4984 3.93703 13.0629 4.64023 12.8068C4.85409 12.7288 5.09015 12.739 5.29649 12.8351C5.50284 12.9312 5.66256 13.1062 5.74053 13.32Z" fill="black"/>
</svg>
