<svg width="25" height="25" viewBox="0 0 25 25" fill="none" xmlns="http://www.w3.org/2000/svg">
<g clip-path="url(#clip0_120_3386)">
<g clip-path="url(#clip1_120_3386)">
<path d="M23.8535 12.3462C23.8535 12.5975 23.7537 12.8385 23.576 13.0162C23.3983 13.1939 23.1573 13.2937 22.906 13.2937C22.6547 13.2937 22.4136 13.1939 22.2359 13.0162C22.0582 12.8385 21.9584 12.5975 21.9584 12.3462C21.9557 9.83398 20.9565 7.42545 19.1801 5.64904C17.4037 3.87264 14.9951 2.87345 12.4829 2.87069C12.2316 2.87069 11.9906 2.77086 11.8129 2.59316C11.6352 2.41546 11.5354 2.17444 11.5354 1.92314C11.5354 1.67183 11.6352 1.43082 11.8129 1.25312C11.9906 1.07542 12.2316 0.975586 12.4829 0.975586C15.4976 0.978847 18.3878 2.17786 20.5195 4.30956C22.6512 6.44126 23.8503 9.33152 23.8535 12.3462ZM16.2731 13.2937C16.5244 13.2937 16.7654 13.1939 16.9431 13.0162C17.1208 12.8385 17.2207 12.5975 17.2207 12.3462C17.2207 12.0949 17.1208 11.8539 16.9431 11.6762C16.7654 11.4985 16.5244 11.3986 16.2731 11.3986H14.1155C13.9504 11.1148 13.7143 10.8787 13.4305 10.7136V7.60844C13.4305 7.35713 13.3306 7.11612 13.1529 6.93842C12.9752 6.76072 12.7342 6.66089 12.4829 6.66089C12.2316 6.66089 11.9906 6.76072 11.8129 6.93842C11.6352 7.11612 11.5354 7.35713 11.5354 7.60844V10.7136C11.284 10.8583 11.0694 11.0589 10.9081 11.2999C10.7468 11.5409 10.6431 11.8157 10.605 12.1032C10.567 12.3907 10.5957 12.6831 10.6888 12.9578C10.782 13.2324 10.9371 13.4819 11.1421 13.687C11.3472 13.892 11.5967 14.0471 11.8713 14.1403C12.146 14.2334 12.4384 14.2621 12.7259 14.2241C13.0134 14.186 13.2882 14.0823 13.5292 13.921C13.7702 13.7597 13.9708 13.5451 14.1155 13.2937H16.2731ZM2.84348 7.40377C2.65607 7.40377 2.47287 7.45934 2.31705 7.56346C2.16123 7.66758 2.03978 7.81556 1.96806 7.98871C1.89634 8.16185 1.87757 8.35237 1.91414 8.53618C1.9507 8.71998 2.04094 8.88882 2.17346 9.02134C2.30598 9.15386 2.47482 9.2441 2.65862 9.28066C2.84243 9.31722 3.03295 9.29846 3.20609 9.22674C3.37923 9.15502 3.52722 9.03357 3.63134 8.87775C3.73546 8.72193 3.79103 8.53873 3.79103 8.35132C3.79103 8.10001 3.6912 7.859 3.5135 7.6813C3.3358 7.5036 3.09479 7.40377 2.84348 7.40377ZM3.00741 12.3462C3.00741 12.1588 2.95183 11.9756 2.84772 11.8198C2.7436 11.6639 2.59561 11.5425 2.42247 11.4708C2.24933 11.3991 2.0588 11.3803 1.875 11.4168C1.69119 11.4534 1.52235 11.5437 1.38984 11.6762C1.25732 11.8087 1.16707 11.9775 1.13051 12.1613C1.09395 12.3451 1.11272 12.5357 1.18443 12.7088C1.25615 12.8819 1.3776 13.0299 1.53342 13.1341C1.68925 13.2382 1.87245 13.2937 2.05986 13.2937C2.31116 13.2937 2.55217 13.1939 2.72987 13.0162C2.90758 12.8385 3.00741 12.5975 3.00741 12.3462ZM12.4829 21.8217C12.2955 21.8217 12.1123 21.8773 11.9565 21.9814C11.8007 22.0855 11.6792 22.2335 11.6075 22.4066C11.5358 22.5798 11.517 22.7703 11.5536 22.9541C11.5901 23.1379 11.6804 23.3067 11.8129 23.4393C11.9454 23.5718 12.1142 23.662 12.2981 23.6986C12.4819 23.7352 12.6724 23.7164 12.8455 23.6447C13.0187 23.573 13.1667 23.4515 13.2708 23.2957C13.3749 23.1399 13.4305 22.9567 13.4305 22.7692C13.4305 22.5179 13.3306 22.2769 13.1529 22.0992C12.9752 21.9215 12.7342 21.8217 12.4829 21.8217ZM5.11192 4.01438C4.92451 4.01438 4.74131 4.06995 4.58548 4.17407C4.42966 4.27819 4.30821 4.42618 4.23649 4.59932C4.16478 4.77246 4.14601 4.96298 4.18257 5.14679C4.21913 5.3306 4.30938 5.49943 4.4419 5.63195C4.57441 5.76447 4.74325 5.85471 4.92706 5.89127C5.11086 5.92784 5.30139 5.90907 5.47453 5.83735C5.64767 5.76564 5.79566 5.64419 5.89978 5.48836C6.00389 5.33254 6.05947 5.14934 6.05947 4.96193C6.05947 4.71062 5.95964 4.46961 5.78194 4.29191C5.60423 4.11421 5.36322 4.01438 5.11192 4.01438ZM8.4833 1.77248C8.29589 1.77248 8.11269 1.82805 7.95687 1.93217C7.80105 2.03629 7.6796 2.18427 7.60788 2.35741C7.53616 2.53056 7.5174 2.72108 7.55396 2.90488C7.59052 3.08869 7.68076 3.25753 7.81328 3.39005C7.9458 3.52256 8.11464 3.61281 8.29844 3.64937C8.48225 3.68593 8.67277 3.66717 8.84591 3.59545C9.01905 3.52373 9.16704 3.40228 9.27116 3.24646C9.37528 3.09063 9.43085 2.90743 9.43085 2.72003C9.43085 2.46872 9.33102 2.22771 9.15332 2.05001C8.97562 1.87231 8.73461 1.77248 8.4833 1.77248ZM2.84348 15.3935C2.65607 15.3935 2.47287 15.4491 2.31705 15.5532C2.16123 15.6573 2.03978 15.8053 1.96806 15.9785C1.89634 16.1516 1.87757 16.3421 1.91414 16.5259C1.9507 16.7097 2.04094 16.8786 2.17346 17.0111C2.30598 17.1436 2.47482 17.2338 2.65862 17.2704C2.84243 17.307 3.03295 17.2882 3.20609 17.2165C3.37923 17.1448 3.52722 17.0233 3.63134 16.8675C3.73546 16.7117 3.79103 16.5285 3.79103 16.3411C3.79103 16.0898 3.6912 15.8487 3.5135 15.671C3.3358 15.4933 3.09479 15.3935 2.84348 15.3935ZM5.11192 18.7829C4.92451 18.7829 4.74131 18.8385 4.58548 18.9426C4.42966 19.0467 4.30821 19.1947 4.23649 19.3678C4.16478 19.541 4.14601 19.7315 4.18257 19.9153C4.21913 20.0991 4.30938 20.268 4.4419 20.4005C4.57441 20.533 4.74325 20.6232 4.92706 20.6598C5.11086 20.6964 5.30139 20.6776 5.47453 20.6059C5.64767 20.5342 5.79566 20.4127 5.89978 20.2569C6.00389 20.1011 6.05947 19.9179 6.05947 19.7305C6.05947 19.4791 5.95964 19.2381 5.78194 19.0604C5.60423 18.8827 5.36322 18.7829 5.11192 18.7829ZM8.4833 21.0248C8.29589 21.0248 8.11269 21.0804 7.95687 21.1845C7.80105 21.2886 7.6796 21.4366 7.60788 21.6097C7.53616 21.7829 7.5174 21.9734 7.55396 22.1572C7.59052 22.341 7.68076 22.5099 7.81328 22.6424C7.9458 22.7749 8.11464 22.8651 8.29844 22.9017C8.48225 22.9383 8.67277 22.9195 8.84591 22.8478C9.01905 22.7761 9.16704 22.6546 9.27116 22.4988C9.37528 22.343 9.43085 22.1598 9.43085 21.9724C9.43085 21.7211 9.33102 21.48 9.15332 21.3023C8.97562 21.1246 8.73461 21.0248 8.4833 21.0248ZM22.1223 15.3935C21.9349 15.3935 21.7517 15.4491 21.5959 15.5532C21.4401 15.6573 21.3186 15.8053 21.2469 15.9785C21.1752 16.1516 21.1564 16.3421 21.193 16.5259C21.2296 16.7097 21.3198 16.8786 21.4523 17.0111C21.5848 17.1436 21.7537 17.2338 21.9375 17.2704C22.1213 17.307 22.3118 17.2882 22.485 17.2165C22.6581 17.1448 22.8061 17.0233 22.9102 16.8675C23.0143 16.7117 23.0699 16.5285 23.0699 16.3411C23.0699 16.2166 23.0454 16.0934 22.9978 15.9785C22.9501 15.8635 22.8803 15.759 22.7924 15.671C22.7044 15.5831 22.5999 15.5133 22.485 15.4656C22.37 15.418 22.2468 15.3935 22.1223 15.3935ZM19.8539 18.7829C19.6665 18.7829 19.4833 18.8385 19.3275 18.9426C19.1717 19.0467 19.0502 19.1947 18.9785 19.3678C18.9068 19.541 18.888 19.7315 18.9246 19.9153C18.9611 20.0991 19.0514 20.268 19.1839 20.4005C19.3164 20.533 19.4852 20.6232 19.669 20.6598C19.8529 20.6964 20.0434 20.6776 20.2165 20.6059C20.3897 20.5342 20.5376 20.4127 20.6418 20.2569C20.7459 20.1011 20.8015 19.9179 20.8015 19.7305C20.8015 19.606 20.7769 19.4828 20.7293 19.3678C20.6817 19.2529 20.6119 19.1484 20.5239 19.0604C20.4359 18.9724 20.3315 18.9026 20.2165 18.855C20.1016 18.8074 19.9783 18.7829 19.8539 18.7829ZM16.4825 21.0248C16.2951 21.0248 16.1119 21.0804 15.9561 21.1845C15.8003 21.2886 15.6788 21.4366 15.6071 21.6097C15.5354 21.7829 15.5166 21.9734 15.5532 22.1572C15.5897 22.341 15.68 22.5099 15.8125 22.6424C15.945 22.7749 16.1139 22.8651 16.2977 22.9017C16.4815 22.9383 16.672 22.9195 16.8451 22.8478C17.0183 22.7761 17.1663 22.6546 17.2704 22.4988C17.3745 22.343 17.4301 22.1598 17.4301 21.9724C17.4301 21.8479 17.4056 21.7247 17.3579 21.6097C17.3103 21.4948 17.2405 21.3903 17.1525 21.3023C17.0646 21.2143 16.9601 21.1446 16.8451 21.0969C16.7302 21.0493 16.607 21.0248 16.4825 21.0248Z" fill="black"/>
</g>
</g>
<defs>
<clipPath id="clip0_120_3386">
<rect width="24" height="24" fill="white" transform="translate(0.197266 0.191406)"/>
</clipPath>
<clipPath id="clip1_120_3386">
<rect width="22.7412" height="22.7412" fill="white" transform="translate(1.1123 0.975586)"/>
</clipPath>
</defs>
</svg>
