<svg width="25" height="25" viewBox="0 0 25 25" fill="none" xmlns="http://www.w3.org/2000/svg">
<path d="M18.3288 3.61084C18.5366 3.61084 18.7296 3.7062 18.8494 3.86364L18.8961 3.93481L22.3304 10.0646L22.3672 10.1481L22.3771 10.179L22.3917 10.2421L22.3997 10.3139L22.3979 10.395L22.4003 10.3422C22.4003 10.4279 22.3818 10.5096 22.3482 10.5838L22.3236 10.6324L22.2887 10.6867L22.2436 10.7426L12.6287 21.3201C12.5429 21.4298 12.4254 21.502 12.2978 21.5368L12.2481 21.5483L12.1646 21.5593L12.1144 21.561L12.0281 21.5555L11.9552 21.5424L11.8667 21.5147L11.8446 21.5047C11.7672 21.4722 11.6961 21.4236 11.6366 21.3599L1.97516 10.7308L1.92192 10.6593L1.88085 10.5833L1.85113 10.5023L1.83129 10.3954L1.83105 10.2914L1.84379 10.2109L1.85201 10.1789L1.88107 10.1005L1.9045 10.0542L5.33307 3.93481C5.43083 3.76032 5.61003 3.64315 5.81235 3.61658L5.9003 3.61084H18.3288ZM15.4625 10.9541H8.76398L12.1154 19.2438L15.4625 10.9541ZM7.38744 10.9541H3.87658L10.1963 17.9041L7.38744 10.9541ZM20.35 10.9541H16.8417L14.0363 17.8984L20.35 10.9541ZM8.70655 4.8339H6.28515L3.54144 9.73022H7.3343L8.70655 4.8339ZM14.1914 4.8339H10.0368L8.66458 9.73022H15.5628L14.1914 4.8339ZM17.9431 4.8339H15.5217L16.894 9.73022H20.6851L17.9431 4.8339Z" fill="#212121"/>
</svg>
