<svg width="25" height="25" viewBox="0 0 25 25" fill="none" xmlns="http://www.w3.org/2000/svg">
<path d="M9.31934 18.4671V6.328L20.4942 4.46045V16.5995" stroke="black" stroke-width="2" stroke-linecap="round" stroke-linejoin="round"/>
<path d="M6.52712 21.2682C8.07005 21.2682 9.32084 20.014 9.32084 18.4669C9.32084 16.9197 8.07005 15.6655 6.52712 15.6655C4.98419 15.6655 3.7334 16.9197 3.7334 18.4669C3.7334 20.014 4.98419 21.2682 6.52712 21.2682Z" stroke="black" stroke-width="2" stroke-linecap="round" stroke-linejoin="round"/>
<path d="M17.7039 19.4C19.2468 19.4 20.4976 18.1458 20.4976 16.5987C20.4976 15.0516 19.2468 13.7974 17.7039 13.7974C16.1609 13.7974 14.9102 15.0516 14.9102 16.5987C14.9102 18.1458 16.1609 19.4 17.7039 19.4Z" stroke="black" stroke-width="2" stroke-linecap="round" stroke-linejoin="round"/>
</svg>
