<svg width="33" height="33" viewBox="0 0 33 33" fill="none" xmlns="http://www.w3.org/2000/svg">
<g clip-path="url(#clip0_120_2204)">
<path d="M16.0527 32.4795C24.8893 32.4795 32.0527 25.316 32.0527 16.4795C32.0527 7.64294 24.8893 0.479492 16.0527 0.479492C7.21618 0.479492 0.0527344 7.64294 0.0527344 16.4795C0.0527344 25.316 7.21618 32.4795 16.0527 32.4795Z" fill="#2081E2"/>
<path d="M7.9467 17.0169L8.01582 16.9084L12.1777 10.397C12.1916 10.3755 12.211 10.358 12.2339 10.3466C12.2568 10.3351 12.2824 10.3301 12.308 10.3319C12.3335 10.3338 12.3581 10.3425 12.3791 10.3572C12.4001 10.3719 12.4168 10.3919 12.4273 10.4153C13.1227 11.9737 13.7227 13.9116 13.4417 15.1183C13.3217 15.6146 12.9931 16.287 12.6232 16.9084C12.5752 16.999 12.5227 17.0876 12.467 17.173C12.454 17.1924 12.4363 17.2082 12.4157 17.2191C12.395 17.23 12.372 17.2356 12.3486 17.2354H8.0683C7.9531 17.2354 7.8859 17.1106 7.9467 17.0169Z" fill="white"/>
<path d="M26.4995 18.2269V19.2573C26.4995 19.3168 26.4634 19.3693 26.4109 19.3924C26.0886 19.5306 24.9856 20.0368 24.527 20.6746C23.3565 22.3034 22.4624 24.633 20.4634 24.633H12.1242C9.16864 24.633 6.77344 22.2298 6.77344 19.264V19.169C6.77344 19.09 6.83744 19.026 6.91648 19.026H11.5654C11.6573 19.026 11.7248 19.1114 11.7165 19.202C11.6837 19.5093 11.7415 19.8195 11.8826 20.0944C12.0177 20.3679 12.2267 20.598 12.4858 20.759C12.7449 20.9199 13.0438 21.0052 13.3488 21.0052H15.6502V19.2084H13.375C13.3484 19.208 13.3224 19.2004 13.2997 19.1864C13.2771 19.1724 13.2587 19.1525 13.2465 19.1288C13.2343 19.1051 13.2288 19.0785 13.2306 19.052C13.2324 19.0254 13.2414 18.9998 13.2566 18.978C13.2816 18.9402 13.3094 18.9012 13.3389 18.8564C13.6357 18.4291 13.9123 17.988 14.1677 17.5348C14.3763 17.17 14.5786 16.7802 14.7411 16.3892C14.7741 16.3184 14.8003 16.2461 14.8266 16.1754C14.871 16.0506 14.9171 15.9338 14.9501 15.817C14.9827 15.7184 15.0093 15.6148 15.0355 15.5178C15.1126 15.1856 15.1456 14.834 15.1456 14.4692C15.1456 14.3261 15.1392 14.1764 15.1258 14.0333C15.1194 13.8772 15.0995 13.721 15.0797 13.5648C15.0644 13.4248 15.0431 13.2854 15.0157 13.1472C14.9814 12.9371 14.9376 12.7287 14.8845 12.5226L14.8662 12.4439C14.8266 12.3008 14.7939 12.1645 14.7478 12.0215C14.6206 11.5836 14.4747 11.1514 14.3104 10.7261C14.2528 10.5632 14.1872 10.4071 14.1216 10.2509C14.0246 10.0157 13.9258 9.80227 13.8355 9.60003C13.7894 9.50787 13.7501 9.42403 13.7107 9.33859C13.6668 9.24246 13.6213 9.14708 13.5741 9.05251C13.5411 8.98211 13.5034 8.91619 13.4771 8.85027L13.1958 8.33091C13.187 8.3152 13.183 8.29723 13.1844 8.27926C13.1858 8.2613 13.1924 8.24413 13.2035 8.22992C13.2145 8.2157 13.2296 8.20507 13.2466 8.19935C13.2637 8.19364 13.2821 8.1931 13.2995 8.19779L15.0586 8.67459H15.0634C15.0666 8.67459 15.0685 8.67619 15.0698 8.67619L15.3018 8.74019L15.5565 8.81251L15.6502 8.83875V7.79331C15.6502 7.28867 16.0547 6.87939 16.5542 6.87939C16.8042 6.87939 17.031 6.98115 17.1939 7.14723C17.3565 7.31363 17.4586 7.54019 17.4586 7.79363V9.34531L17.6458 9.39779C17.6611 9.40259 17.6756 9.40983 17.6886 9.41923C17.7347 9.45379 17.8006 9.50467 17.8842 9.56707C17.9501 9.61955 18.0208 9.68387 18.1062 9.74947C18.2755 9.88611 18.4774 10.0618 18.6995 10.264C18.7587 10.3152 18.8163 10.3677 18.8691 10.4202C19.1877 10.7134 19.4921 11.0217 19.7811 11.344C19.8669 11.441 19.9507 11.5396 20.0362 11.6432C20.1216 11.7485 20.2122 11.8519 20.2909 11.9556C20.3946 12.0938 20.5062 12.2368 20.6032 12.3863C20.6493 12.457 20.7018 12.5293 20.7462 12.6C20.871 12.7888 20.9811 12.9847 21.0864 13.1802C21.1309 13.2708 21.177 13.3693 21.2163 13.4663C21.3331 13.7277 21.425 13.9943 21.4842 14.2602C21.5024 14.3178 21.5155 14.3802 21.5219 14.4362V14.4493C21.5418 14.5284 21.5485 14.6122 21.5549 14.6976C21.5822 14.9718 21.5666 15.2485 21.5088 15.5178C21.4834 15.6342 21.451 15.7489 21.4118 15.8615C21.3725 15.9735 21.3331 16.09 21.2819 16.2C21.1828 16.433 21.0647 16.6573 20.9286 16.8708C20.8842 16.9495 20.8317 17.0333 20.7789 17.1124C20.7213 17.1962 20.6624 17.2752 20.6096 17.3524C20.5373 17.4509 20.4602 17.5546 20.3811 17.6468C20.3107 17.7437 20.2381 17.8407 20.1594 17.9261C20.0537 18.0523 19.9452 18.1761 19.8339 18.2973C19.768 18.3748 19.6973 18.4538 19.625 18.5245C19.5546 18.6032 19.4819 18.674 19.4163 18.7399C19.3062 18.85 19.2141 18.9354 19.137 19.0061L18.9562 19.1722C18.9293 19.1956 18.8948 19.2084 18.8592 19.2084H17.4582V21.0052H19.2205C19.6135 21.005 19.9936 20.8644 20.2922 20.6087C20.3958 20.5184 20.8477 20.1271 21.3821 19.537C21.4 19.517 21.4233 19.5028 21.4493 19.496L26.3168 18.0887C26.3381 18.0827 26.3606 18.0817 26.3824 18.0859C26.4041 18.09 26.4246 18.0991 26.4423 18.1125C26.46 18.1259 26.4743 18.1432 26.4842 18.1631C26.494 18.1829 26.4995 18.2048 26.4995 18.2269Z" fill="white"/>
</g>
<defs>
<clipPath id="clip0_120_2204">
<rect width="32" height="32" fill="white" transform="translate(0.0527344 0.479492)"/>
</clipPath>
</defs>
</svg>
