<svg width="25" height="25" viewBox="0 0 25 25" fill="none" xmlns="http://www.w3.org/2000/svg">
<g clip-path="url(#clip0_120_3372)">
<path d="M13.3018 8.26074H16.0734L13.3018 11.0323H16.0734" stroke="black" stroke-linecap="round" stroke-linejoin="round"/>
<path d="M17.459 2.71729H21.1545L17.459 6.41276H21.1545" stroke="black" stroke-linecap="round" stroke-linejoin="round"/>
<path d="M7.64357 19.359C7.31233 19.1674 6.88846 19.2805 6.69685 19.6117C6.50523 19.943 6.61842 20.3669 6.94967 20.5585L7.64357 19.359ZM3.31347 16.9223C3.50508 17.2536 3.92895 17.3667 4.26021 17.1751C4.59145 16.9835 4.70464 16.5596 4.51303 16.2284L3.31347 16.9223ZM20.4618 11.956C20.4618 16.6757 16.6356 20.5018 11.916 20.5018V21.8876C17.4011 21.8876 21.8476 17.4411 21.8476 11.956H20.4618ZM3.37018 11.956C3.37018 7.2363 7.19626 3.41022 11.916 3.41022V2.02441C6.4309 2.02441 1.98438 6.47094 1.98438 11.956H3.37018ZM15.1495 14.0347C12.2157 14.0347 9.83726 11.6563 9.83726 8.72246H8.45146C8.45146 12.4217 11.4502 15.4205 15.1495 15.4205V14.0347ZM19.6998 11.4654C18.7685 13.0067 17.0787 14.0347 15.1495 14.0347V15.4205C17.5838 15.4205 19.7141 14.1215 20.886 12.1821L19.6998 11.4654ZM9.83726 8.72246C9.83726 6.79326 10.8652 5.10348 12.4065 4.1721L11.6899 2.98602C9.7505 4.1579 8.45146 6.28815 8.45146 8.72246H9.83726ZM11.916 3.41022C11.8342 3.41022 11.7383 3.37334 11.6687 3.30091C11.6098 3.23955 11.5961 3.1815 11.5929 3.15803C11.589 3.12924 11.5909 3.04582 11.6899 2.98602L12.4065 4.1721C12.8714 3.89123 13.0209 3.37694 12.9662 2.97255C12.9095 2.55218 12.578 2.02441 11.916 2.02441V3.41022ZM20.886 12.1821C20.8261 12.281 20.7427 12.283 20.714 12.2791C20.6905 12.2758 20.6324 12.2622 20.571 12.2032C20.4986 12.1337 20.4618 12.0378 20.4618 11.956H21.8476C21.8476 11.294 21.3197 10.9625 20.8994 10.9058C20.495 10.8511 19.9807 11.0005 19.6998 11.4654L20.886 12.1821ZM11.916 20.5018C10.3582 20.5018 8.89984 20.0857 7.64357 19.359L6.94967 20.5585C8.41118 21.4039 10.1081 21.8876 11.916 21.8876V20.5018ZM4.51303 16.2284C3.78632 14.9722 3.37018 13.5137 3.37018 11.956H1.98438C1.98438 13.7638 2.46803 15.4608 3.31347 16.9223L4.51303 16.2284Z" fill="black"/>
</g>
<defs>
<clipPath id="clip0_120_3372">
<rect width="24" height="24" fill="white" transform="translate(0.115234 0.0283203)"/>
</clipPath>
</defs>
</svg>
