<svg width="28" height="22" viewBox="0 0 28 22" fill="none" xmlns="http://www.w3.org/2000/svg">
<path d="M1.46968 10.2834H8.80869C9.13309 10.2834 9.44421 10.1545 9.6736 9.92514C9.90299 9.69575 10.0319 9.38463 10.0319 9.06023V1.72122C10.0319 1.39681 9.90299 1.08569 9.6736 0.856305C9.44421 0.626916 9.13309 0.498047 8.80869 0.498047H1.46968C1.14527 0.498047 0.834157 0.626916 0.604768 0.856305C0.37538 1.08569 0.246511 1.39681 0.246511 1.72122V9.06023C0.246511 9.38463 0.37538 9.69575 0.604768 9.92514C0.834157 10.1545 1.14527 10.2834 1.46968 10.2834ZM2.69285 2.94438H7.58552V7.83706H2.69285V2.94438ZM27.1562 5.39072C27.1562 5.71512 27.0273 6.02624 26.798 6.25563C26.5686 6.48502 26.2574 6.61389 25.933 6.61389H13.7014C13.377 6.61389 13.0658 6.48502 12.8365 6.25563C12.6071 6.02624 12.4782 5.71512 12.4782 5.39072C12.4782 5.06632 12.6071 4.7552 12.8365 4.52581C13.0658 4.29642 13.377 4.16755 13.7014 4.16755H25.933C26.2574 4.16755 26.5686 4.29642 26.798 4.52581C27.0273 4.7552 27.1562 5.06632 27.1562 5.39072ZM27.1562 17.6224C27.1562 17.9468 27.0273 18.2579 26.798 18.4873C26.5686 18.7167 26.2574 18.8456 25.933 18.8456H13.7014C13.377 18.8456 13.0658 18.7167 12.8365 18.4873C12.6071 18.2579 12.4782 17.9468 12.4782 17.6224C12.4782 17.298 12.6071 16.9869 12.8365 16.7575C13.0658 16.5281 13.377 16.3992 13.7014 16.3992H25.933C26.2574 16.3992 26.5686 16.5281 26.798 16.7575C27.0273 16.9869 27.1562 17.298 27.1562 17.6224ZM2.98029 20.925L0.590221 18.4456C0.364598 18.2124 0.240872 17.899 0.246263 17.5746C0.251653 17.2501 0.385718 16.941 0.618965 16.7154C0.852212 16.4898 1.16553 16.3661 1.49 16.3715C1.81447 16.3769 2.12351 16.5109 2.34914 16.7442L3.88054 18.3343L7.95247 14.3064C8.06372 14.1811 8.1995 14.0801 8.35142 14.0095C8.50333 13.9388 8.66813 13.9002 8.8356 13.8959C9.00307 13.8916 9.16964 13.9217 9.32498 13.9844C9.48032 14.0472 9.62112 14.1411 9.73865 14.2605C9.85618 14.3799 9.94794 14.5221 10.0082 14.6784C10.0685 14.8347 10.0961 15.0017 10.0891 15.1691C10.0822 15.3365 10.041 15.5007 9.96803 15.6515C9.89506 15.8023 9.79188 15.9365 9.66491 16.0457L4.71597 20.9384C4.48794 21.1639 4.18046 21.2909 3.85975 21.2919H3.84507C3.68386 21.2908 3.52446 21.2577 3.37605 21.1948C3.22764 21.1318 3.09314 21.0401 2.98029 20.925Z" fill="black"/>
</svg>
