<svg width="31" height="31" viewBox="0 0 31 31" fill="none" xmlns="http://www.w3.org/2000/svg">
<path d="M26.4233 6.75854C26.7912 7.12463 27.083 7.56005 27.2817 8.03954C27.4805 8.51907 27.5822 9.03324 27.5811 9.55229C27.5817 10.0706 27.4797 10.5839 27.281 11.0626C27.0823 11.5413 26.7908 11.9759 26.4233 12.3413L20.6108 18.1585C20.4332 18.3331 20.1941 18.4307 19.9452 18.4304H19.9405L19.0077 17.4976C19.0083 17.2479 19.1077 17.0086 19.2842 16.832L25.0967 11.0148C25.2906 10.8239 25.4444 10.5962 25.5491 10.3451C25.6537 10.0939 25.7071 9.82435 25.7061 9.55229C25.7076 9.27943 25.6544 9.00905 25.5498 8.75705C25.4451 8.5051 25.2911 8.27663 25.0967 8.0851L22.5467 5.53041C22.1576 5.14313 21.6309 4.9257 21.0819 4.9257C20.5328 4.9257 20.0062 5.14313 19.617 5.53041L13.7998 11.3476C13.6214 11.5243 13.3806 11.6236 13.1295 11.6242L12.2014 10.696C12.1986 10.571 12.2213 10.4467 12.268 10.3306C12.3147 10.2146 12.3846 10.1093 12.4733 10.021L18.2905 4.20385C19.0318 3.4654 20.0355 3.05078 21.0819 3.05078C22.1282 3.05078 23.132 3.4654 23.8733 4.20385L26.4233 6.75854Z" fill="black"/>
<path d="M19.4863 11.146C19.5735 11.2331 19.6427 11.3365 19.6898 11.4503C19.737 11.5641 19.7613 11.6861 19.7613 11.8093C19.7613 11.9325 19.737 12.0545 19.6898 12.1683C19.6427 12.2821 19.5735 12.3855 19.4863 12.4726L16.7348 15.2241L15.4082 13.8976L18.1598 11.146C18.2469 11.0589 18.3502 10.9897 18.464 10.9425C18.5778 10.8954 18.6999 10.8711 18.823 10.8711C18.9462 10.8711 19.0683 10.8954 19.1821 10.9425C19.2959 10.9897 19.3992 11.0589 19.4863 11.146Z" fill="black"/>
<path d="M16.0688 21.3696C16.1559 21.4567 16.2251 21.5601 16.2723 21.6739C16.3195 21.7877 16.3437 21.9097 16.3437 22.0329C16.3437 22.1561 16.3195 22.2781 16.2723 22.3919C16.2251 22.5057 16.1559 22.6091 16.0688 22.6962L12.525 26.2446C12.1579 26.611 11.7222 26.9013 11.2429 27.0992C10.7635 27.2971 10.2499 27.3985 9.73127 27.3978C9.2134 27.3984 8.70045 27.2969 8.22185 27.099C7.74326 26.9012 7.3084 26.6108 6.94221 26.2446L4.38752 23.6899C4.0202 23.3236 3.72915 22.8881 3.53122 22.4085C3.33329 21.929 3.23241 21.415 3.2344 20.8962C3.23288 20.3782 3.33399 19.865 3.53191 19.3863C3.72983 18.9076 4.02064 18.4728 4.38752 18.1071L7.93596 14.5634C8.02259 14.4754 8.12585 14.4056 8.23971 14.3579C8.35357 14.3102 8.47577 14.2856 8.59924 14.2856C8.72266 14.2856 8.84492 14.3102 8.95877 14.3579C9.07263 14.4056 9.1759 14.4754 9.26252 14.5634C9.34943 14.6501 9.41838 14.7531 9.46545 14.8665C9.51246 14.98 9.5367 15.1015 9.5367 15.2243C9.5367 15.3471 9.51246 15.4687 9.46545 15.5821C9.41838 15.6955 9.34943 15.7985 9.26252 15.8853L5.71409 19.4337C5.32681 19.8228 5.10938 20.3495 5.10938 20.8985C5.10938 21.4475 5.32681 21.9742 5.71409 22.3634L8.26877 24.9181C8.65793 25.3053 9.18462 25.5228 9.73362 25.5228C10.2826 25.5228 10.8093 25.3053 11.1985 24.9181L14.7422 21.3696C14.8293 21.2824 14.9327 21.2133 15.0465 21.1661C15.1603 21.1189 15.2823 21.0947 15.4055 21.0947C15.5287 21.0947 15.6507 21.1189 15.7645 21.1661C15.8783 21.2133 15.9817 21.2824 16.0688 21.3696Z" fill="black"/>
<path d="M15.407 16.5511L10.4054 21.5461C10.3189 21.6334 10.2159 21.7028 10.1025 21.7502C9.98908 21.7977 9.86744 21.8223 9.74448 21.8226C9.49478 21.822 9.25548 21.7226 9.07886 21.5461C8.99195 21.4593 8.923 21.3563 8.87594 21.2429C8.82892 21.1295 8.80469 21.0079 8.80469 20.8851C8.80469 20.7623 8.82892 20.6407 8.87594 20.5274C8.923 20.414 8.99195 20.3109 9.07886 20.2242L14.0804 15.2227L15.407 16.5511Z" fill="black"/>
<path d="M25.1477 23.6383L19.9398 18.4305L19.007 17.4977L16.7336 15.2243L15.407 13.8977L13.1289 11.6243L12.2008 10.6961L6.98828 5.48364C6.90156 5.39674 6.79853 5.32779 6.68509 5.28072C6.5717 5.23371 6.45011 5.20947 6.32734 5.20947C6.20458 5.20947 6.08298 5.23371 5.96955 5.28072C5.85616 5.32779 5.75313 5.39674 5.66641 5.48364C5.57842 5.57027 5.50858 5.67354 5.46091 5.78739C5.41323 5.90125 5.38867 6.02346 5.38867 6.14693C5.38867 6.27039 5.41323 6.3926 5.46091 6.50646C5.50858 6.62032 5.57842 6.72358 5.66641 6.81021L14.0805 15.2243L15.407 16.5508L23.8211 24.9649C23.9076 25.0522 24.0106 25.1216 24.124 25.169C24.2374 25.2165 24.3591 25.2411 24.482 25.2415C24.6057 25.2416 24.7283 25.2172 24.8425 25.1697C24.9567 25.1223 25.0605 25.0526 25.1477 24.9649C25.2348 24.8778 25.304 24.7744 25.3511 24.6606C25.3983 24.5468 25.4226 24.4248 25.4226 24.3016C25.4226 24.1784 25.3983 24.0564 25.3511 23.9426C25.304 23.8288 25.2348 23.7254 25.1477 23.6383Z" fill="#999999"/>
</svg>
