<svg width="26" height="26" viewBox="0 0 26 26" fill="none" xmlns="http://www.w3.org/2000/svg">
<path d="M12.0794 1.73845C12.0794 1.73845 12.0794 0.345703 13.4722 0.345703C14.8649 0.345703 14.8649 1.73845 14.8649 1.73845V3.13119C14.8649 3.13119 14.8649 4.52393 13.4722 4.52393C12.0794 4.52393 12.0794 3.13119 12.0794 3.13119V1.73845ZM24.6141 11.4876C24.6141 11.4876 26.0069 11.4876 26.0069 12.8804C26.0069 14.2731 24.6141 14.2731 24.6141 14.2731H23.2214C23.2214 14.2731 21.8286 14.2731 21.8286 12.8804C21.8286 11.4876 23.2214 11.4876 23.2214 11.4876H24.6141ZM3.72299 11.4876C3.72299 11.4876 5.11573 11.4876 5.11573 12.8804C5.11573 14.2731 3.72299 14.2731 3.72299 14.2731H2.33024C2.33024 14.2731 0.9375 14.2731 0.9375 12.8804C0.9375 11.4876 2.33024 11.4876 2.33024 11.4876H3.72299ZM7.2891 5.42434C7.2891 5.42434 8.27377 6.40901 7.2891 7.39368C6.30443 8.37835 5.31977 7.39368 5.31977 7.39368L4.3344 6.40971C4.3344 6.40971 3.34973 5.42504 4.3344 4.43967C5.31977 3.455 6.30443 4.43967 6.30443 4.43967L7.2891 5.42434ZM21.9129 20.0481C21.9129 20.0481 22.8976 21.0328 21.9129 22.0175C20.9282 23.0021 19.9436 22.0175 19.9436 22.0175L18.9589 21.0328C18.9589 21.0328 17.9742 20.0481 18.9589 19.0635C19.9436 18.0788 20.9282 19.0635 20.9282 19.0635L21.9129 20.0481ZM21.6253 7.39368C21.6253 7.39368 20.6406 8.37835 19.656 7.39368C18.6713 6.40901 19.656 5.42434 19.656 5.42434L20.6406 4.43967C20.6406 4.43967 21.6253 3.455 22.61 4.43967C23.5946 5.42434 22.61 6.40901 22.61 6.40901L21.6253 7.39368ZM7.0015 22.0175C7.0015 22.0175 6.01683 23.0021 5.03216 22.0175C4.04749 21.0328 5.03216 20.0481 5.03216 20.0481L6.01683 19.0635C6.01683 19.0635 7.0015 18.0788 7.98617 19.0635C8.97084 20.0481 7.98617 21.0328 7.98617 21.0328L7.0015 22.0175ZM12.0794 22.6296C12.0794 22.6296 12.0794 21.2368 13.4722 21.2368C14.8649 21.2368 14.8649 22.6296 14.8649 22.6296V24.0223C14.8649 24.0223 14.8649 25.4151 13.4722 25.4151C12.0794 25.4151 12.0794 24.0223 12.0794 24.0223V22.6296Z" fill="#FEC600"/>
<path d="M13.4715 19.8439C17.3175 19.8439 20.4352 16.7262 20.4352 12.8802C20.4352 9.03427 17.3175 5.9165 13.4715 5.9165C9.62557 5.9165 6.50781 9.03427 6.50781 12.8802C6.50781 16.7262 9.62557 19.8439 13.4715 19.8439Z" fill="#FEC600"/>
</svg>
