<svg width="25" height="25" viewBox="0 0 25 25" fill="none" xmlns="http://www.w3.org/2000/svg">
<path d="M12.1154 16.2061C11.5631 16.2061 11.1154 16.6538 11.1154 17.2061C11.1154 17.7584 11.5631 18.2061 12.1154 18.2061V16.2061ZM12.1254 18.2061C12.6777 18.2061 13.1254 17.7584 13.1254 17.2061C13.1254 16.6538 12.6777 16.2061 12.1254 16.2061V18.2061ZM14.8059 14.2461C15.2145 14.6177 15.8469 14.5878 16.2185 14.1793C16.5902 13.7707 16.5602 13.1383 16.1517 12.7666L14.8059 14.2461ZM18.1693 10.5464C18.5778 10.918 19.2103 10.8881 19.5819 10.4795C19.9536 10.071 19.9236 9.43845 19.5151 9.06685L18.1693 10.5464ZM8.07918 12.7666C7.67063 13.1383 7.6407 13.7707 8.01232 14.1793C8.38395 14.5878 9.01641 14.6177 9.42495 14.2461L8.07918 12.7666ZM4.71579 9.06685C4.30724 9.43845 4.27731 10.071 4.64893 10.4795C5.02056 10.8881 5.65302 10.918 6.06157 10.5464L4.71579 9.06685ZM12.1154 18.2061H12.1254V16.2061H12.1154V18.2061ZM12.1154 13.2061C13.1521 13.2061 14.0947 13.5992 14.8059 14.2461L16.1517 12.7666C15.0867 11.7979 13.669 11.2061 12.1154 11.2061V13.2061ZM12.1154 8.20605C14.4473 8.20605 16.57 9.09155 18.1693 10.5464L19.5151 9.06685C17.562 7.29025 14.9641 6.20605 12.1154 6.20605V8.20605ZM9.42495 14.2461C10.1361 13.5992 11.0787 13.2061 12.1154 13.2061V11.2061C10.5618 11.2061 9.14417 11.7979 8.07918 12.7666L9.42495 14.2461ZM6.06157 10.5464C7.66089 9.09155 9.7836 8.20605 12.1154 8.20605V6.20605C9.26672 6.20605 6.66889 7.29025 4.71579 9.06685L6.06157 10.5464Z" fill="black"/>
</svg>
