<svg width="53" height="54" viewBox="0 0 53 54" fill="none" xmlns="http://www.w3.org/2000/svg">
<path d="M9.55047 12.517C10.2683 9.47847 12.9357 7.33691 16.0026 7.33691H37.3611C40.428 7.33691 43.0954 9.47847 43.8132 12.517L48.1292 30.7874C49.2942 35.7186 45.6271 40.4619 40.6501 40.4619H23.4324V37.1494H40.6501C43.5242 37.1494 45.6416 34.4102 44.9691 31.5628L40.6529 13.2923C40.2867 11.7421 38.9258 10.6494 37.3611 10.6494H16.0026C14.4378 10.6494 13.0769 11.7421 12.7107 13.2923L11.2483 19.4827H8.80513C8.49326 19.4827 8.18698 19.5072 7.88805 19.5542L9.55047 12.517ZM23.408 45.9827H38.0585C38.9562 45.9827 39.6838 45.2412 39.6838 44.3265C39.6838 43.4118 38.9562 42.6702 38.0585 42.6702H23.4324V45.4307C23.4324 45.6168 23.4242 45.801 23.408 45.9827ZM13.1394 32.7327C14.6354 32.7327 15.8482 31.497 15.8482 29.9723C15.8482 28.4477 14.6354 27.2119 13.1394 27.2119C11.6434 27.2119 10.4307 28.4477 10.4307 29.9723C10.4307 31.497 11.6434 32.7327 13.1394 32.7327ZM5.01318 25.5557C5.01318 23.4213 6.71103 21.6911 8.80543 21.6911H17.4734C19.5678 21.6911 21.2657 23.4213 21.2657 25.5557V45.4307C21.2657 47.565 19.5678 49.2952 17.4734 49.2952H8.80541C6.71103 49.2952 5.01318 47.565 5.01318 45.4307V25.5557ZM8.80543 25.0036C8.50622 25.0036 8.26368 25.2507 8.26368 25.5557V45.4307C8.26368 45.7356 8.50622 45.9827 8.80541 45.9827H17.4734C17.7726 45.9827 18.0152 45.7356 18.0152 45.4307V25.5557C18.0152 25.2507 17.7726 25.0036 17.4734 25.0036H8.80543Z" fill="#212121"/>
</svg>
