<svg width="30" height="31" viewBox="0 0 30 31" fill="none" xmlns="http://www.w3.org/2000/svg">
<path d="M16.7613 10.7129L17.7432 14.6498L21.671 15.6341L17.7432 16.6183L16.7613 20.5552L15.7793 16.6183L11.8516 15.6341L15.7793 14.6498L16.7613 10.7129ZM14.1591 13.0258L3.75455 15.6341L14.1591 18.2423L16.7613 28.6712L19.3634 18.2423L29.768 15.6341L19.3634 13.0258L16.7613 2.59695L14.1591 13.0258ZM5.95998 4.80753L4.97804 0.870605L3.9961 4.80753L0.0683594 5.79176L3.9961 6.77599L4.97804 10.7129L5.95998 6.77599L9.88772 5.79176L5.95998 4.80753ZM7.92385 24.4921L6.94191 20.5552L5.95998 24.4921L2.03223 25.4764L5.95998 26.4606L6.94191 30.3975L7.92385 26.4606L11.8516 25.4764L7.92385 24.4921Z" fill="white"/>
</svg>
