<svg width="25" height="26" viewBox="0 0 25 26" fill="none" xmlns="http://www.w3.org/2000/svg">
<path d="M19.5118 4.13135H16.5188C15.4168 4.13135 14.5234 5.02678 14.5234 6.13135V9.13135C14.5234 10.2359 15.4168 11.1313 16.5188 11.1313H19.5118C20.6138 11.1313 21.5071 10.2359 21.5071 9.13135V6.13135C21.5071 5.02678 20.6138 4.13135 19.5118 4.13135Z" stroke="#808080" stroke-width="2" stroke-linecap="round" stroke-linejoin="round"/>
<path d="M8.53717 4.13135H5.54417C4.44217 4.13135 3.54883 5.02678 3.54883 6.13135V9.13135C3.54883 10.2359 4.44217 11.1313 5.54417 11.1313H8.53717C9.63917 11.1313 10.5325 10.2359 10.5325 9.13135V6.13135C10.5325 5.02678 9.63917 4.13135 8.53717 4.13135Z" stroke="#808080" stroke-width="2" stroke-linecap="round" stroke-linejoin="round"/>
<path d="M19.5118 15.1313H16.5188C15.4168 15.1313 14.5234 16.0267 14.5234 17.1313V20.1313C14.5234 21.2359 15.4168 22.1313 16.5188 22.1313H19.5118C20.6138 22.1313 21.5071 21.2359 21.5071 20.1313V17.1313C21.5071 16.0267 20.6138 15.1313 19.5118 15.1313Z" stroke="#808080" stroke-width="2" stroke-linecap="round" stroke-linejoin="round"/>
<path d="M8.53717 15.1313H5.54417C4.44217 15.1313 3.54883 16.0267 3.54883 17.1313V20.1313C3.54883 21.2359 4.44217 22.1313 5.54417 22.1313H8.53717C9.63917 22.1313 10.5325 21.2359 10.5325 20.1313V17.1313C10.5325 16.0267 9.63917 15.1313 8.53717 15.1313Z" stroke="#808080" stroke-width="2" stroke-linecap="round" stroke-linejoin="round"/>
</svg>
