<svg width="331" height="255" viewBox="0 0 331 255" fill="none" xmlns="http://www.w3.org/2000/svg">
<path d="M32.3062 184.788L22.2826 185.009L17.1956 185.098C15.4956 185.136 13.7872 185.128 12.0826 185.142L11.7435 185.145L11.742 184.788L11.7007 175.894L11.6992 175.495L12.0826 175.497L22.194 175.547C25.5643 175.551 28.9353 175.636 32.3055 175.677L32.5163 175.68L32.514 175.894C32.4995 177.404 32.4483 178.904 32.4139 180.388L32.3062 184.788ZM32.3062 184.788L32.1978 180.294C32.1634 178.813 32.1123 177.349 32.0977 175.893L32.3062 176.11C28.936 176.151 25.565 176.237 22.1948 176.241L12.0834 176.291L12.4645 175.894L12.4232 184.788L12.0826 184.434C13.749 184.448 15.4108 184.44 17.0818 184.478L22.1062 184.567L32.3062 184.788Z" fill="#EBEBEB"/>
<path d="M21.0255 196.002L11.0019 196.224L5.91484 196.313C4.21483 196.351 2.50643 196.343 0.801838 196.357L0.462754 196.36L0.461224 196.003L0.419987 187.109L0.418457 186.71L0.801838 186.712L10.9133 186.762C14.2835 186.766 17.6545 186.851 21.0247 186.892L21.2355 186.894L21.2332 187.109C21.2187 188.618 21.1675 190.119 21.1332 191.603L21.0255 196.002ZM21.0255 196.002L20.917 191.508C20.8827 190.028 20.8315 188.564 20.817 187.108L21.0255 187.325C17.6553 187.366 14.2843 187.452 10.914 187.456L0.802602 187.506L1.18369 187.109L1.14245 196.003L0.801838 195.649C2.46824 195.663 4.13006 195.655 5.80104 195.692L10.8255 195.781L21.0255 196.002Z" fill="#EBEBEB"/>
<path d="M43.5875 196.002L33.5639 196.224L28.4768 196.313C26.7768 196.351 25.0684 196.343 23.3639 196.357L23.0248 196.36L23.0232 196.003L22.982 187.109L22.9805 186.71L23.3639 186.712L33.4753 186.762C36.8455 186.766 40.2165 186.851 43.5867 186.892L43.7975 186.894L43.7952 187.109C43.7807 188.618 43.7295 190.119 43.6952 191.603L43.5875 196.002ZM43.5875 196.002L43.479 191.508C43.4447 190.028 43.3935 188.564 43.379 187.108L43.5875 187.325C40.2173 187.366 36.8463 187.452 33.4761 187.456L23.3646 187.506L23.7457 187.109L23.7045 196.003L23.3639 195.649C25.0303 195.663 26.6921 195.655 28.3631 195.692L33.3875 195.781L43.5875 196.002Z" fill="#EBEBEB"/>
<path d="M319.509 196.002L309.486 196.224L304.399 196.313C302.699 196.351 300.99 196.343 299.286 196.357L298.946 196.36L298.945 196.003L298.904 187.109L298.901 186.71L299.285 186.712L309.396 186.762C312.766 186.766 316.137 186.851 319.508 186.892L319.718 186.894L319.716 187.109C319.702 188.618 319.65 190.119 319.616 191.603L319.509 196.002ZM319.509 196.002L319.401 191.508C319.366 190.028 319.315 188.564 319.301 187.108L319.509 187.325C316.139 187.366 312.768 187.452 309.398 187.456L299.286 187.506L299.667 187.109L299.626 196.003L299.286 195.649C300.952 195.663 302.614 195.655 304.285 195.692L309.309 195.781L319.509 196.002Z" fill="#EBEBEB"/>
<path d="M319.509 11.176L309.486 11.3978L304.399 11.4868C302.699 11.5241 300.99 11.5162 299.286 11.5305L298.946 11.5329L298.945 11.176L298.904 2.28182L298.901 1.88281L299.285 1.8844L309.396 1.93448C312.766 1.93845 316.137 2.0235 319.508 2.06483L319.718 2.06722L319.716 2.28182C319.702 3.79121 319.65 5.29186 319.616 6.77581L319.509 11.176ZM319.509 11.176L319.401 6.68202C319.366 5.20125 319.315 3.73716 319.301 2.28182L319.509 2.49881C316.139 2.53935 312.768 2.62519 309.398 2.62916L299.286 2.67924L299.667 2.28262L299.626 11.1768L299.286 10.8223C300.952 10.8366 302.614 10.8287 304.285 10.866L309.309 10.955L319.509 11.176Z" fill="#EBEBEB"/>
<path d="M330.791 22.3915L320.767 22.6133L315.68 22.7023C313.98 22.7397 312.272 22.7317 310.567 22.746L310.228 22.7492L310.226 22.3923L310.185 13.4981L310.183 13.0991L310.566 13.1007L320.678 13.1508C324.048 13.1548 327.419 13.2398 330.789 13.2811L331 13.2835L330.998 13.4981C330.983 15.0075 330.932 16.5082 330.898 17.9921L330.791 22.3915ZM330.791 22.3915L330.682 17.8975C330.648 16.4168 330.597 14.9527 330.582 13.4973L330.791 13.7143C327.42 13.7549 324.049 13.8407 320.679 13.8447L310.568 13.8947L310.949 13.4981L310.908 22.3923L310.567 22.0378C312.233 22.0521 313.895 22.0442 315.566 22.0815L320.591 22.1706L330.791 22.3915Z" fill="#EBEBEB"/>
<path d="M21.0255 11.1853L11.0019 11.407L5.91484 11.4961C4.21483 11.5334 2.50643 11.5255 0.801838 11.5398L0.462754 11.5422L0.461224 11.1853L0.419987 2.2911L0.418457 1.89209L0.801838 1.89368L10.9133 1.94375C14.2835 1.94773 17.6545 2.03278 21.0247 2.07411L21.2355 2.07649L21.2332 2.2911C21.2187 3.80049 21.1675 5.30113 21.1332 6.78509L21.0255 11.1853ZM21.0255 11.1853L20.917 6.6913C20.8827 5.21052 20.8315 3.74644 20.817 2.2911L21.0255 2.50808C17.6553 2.54862 14.2843 2.63446 10.914 2.63844L0.802602 2.68851L1.18369 2.29189L1.14245 11.1861L0.801838 10.8316C2.46824 10.8459 4.13006 10.8379 5.80104 10.8753L10.8255 10.9643L21.0255 11.1853Z" fill="#EBEBEB"/>
<path d="M164.943 245.696L174.966 245.474L180.053 245.385C181.753 245.348 183.462 245.356 185.166 245.342L185.505 245.339L185.507 245.696L185.548 254.59L185.55 254.989L185.167 254.988L175.056 254.938C171.685 254.934 168.314 254.848 164.944 254.807L164.733 254.805L164.736 254.59C164.75 253.081 164.801 251.58 164.836 250.096L164.943 245.696ZM164.943 245.696L165.051 250.19C165.085 251.671 165.137 253.135 165.151 254.59L164.943 254.373C168.313 254.333 171.684 254.247 175.054 254.243L185.166 254.193L184.784 254.59L184.826 245.695L185.166 246.05C183.5 246.036 181.838 246.044 180.167 246.006L175.143 245.917L164.943 245.696Z" fill="#EBEBEB"/>
<path d="M176.224 234.481L186.247 234.259L191.334 234.17C193.034 234.133 194.743 234.141 196.447 234.126L196.786 234.124L196.788 234.481L196.829 243.375L196.831 243.774L196.447 243.773L186.336 243.722C182.966 243.718 179.595 243.633 176.224 243.592L176.014 243.59L176.016 243.375C176.03 241.866 176.082 240.365 176.116 238.881L176.224 234.481ZM176.224 234.481L176.332 238.975C176.366 240.456 176.418 241.92 176.432 243.375L176.224 243.158C179.594 243.118 182.965 243.032 186.335 243.028L196.447 242.978L196.065 243.374L196.107 234.48L196.447 234.835C194.781 234.82 193.119 234.828 191.448 234.791L186.424 234.702L176.224 234.481Z" fill="#EBEBEB"/>
<path d="M308.309 25.0625H271.014V92.803H308.309V25.0625Z" fill="#EBEBEB"/>
<path d="M305.123 28.6489H274.199V89.2161H305.123V28.6489Z" fill="white"/>
<path d="M310.035 25.0625H308.309V92.803H310.035V25.0625Z" fill="#DBDBDB"/>
<path d="M296.801 40.3608H282.522V77.5058H296.801V40.3608Z" fill="#FFCCDF"/>
<path d="M322.817 111.502H285.523V152.861H322.817V111.502Z" fill="#EBEBEB"/>
<path d="M319.631 115.089H288.708V149.274H319.631V115.089Z" fill="white"/>
<path d="M324.544 111.502H322.817V152.861H324.544V111.502Z" fill="#A2E9FF"/>
<path d="M311.309 126.8H297.03V137.563H311.309V126.8Z" fill="#A2E9FF"/>
<path d="M315.881 126.8C315.881 129.428 313.834 131.558 311.309 131.558C308.784 131.558 306.738 129.428 306.738 126.8C306.738 124.173 308.784 122.042 311.309 122.042C313.834 122.043 315.881 124.173 315.881 126.8Z" fill="#EBEBEB"/>
<path d="M35.196 48.6124C46.3083 48.6124 55.3165 39.2369 55.3165 27.6717C55.3165 16.1064 46.3083 6.73096 35.196 6.73096C24.0837 6.73096 15.0754 16.1064 15.0754 27.6717C15.0754 39.2369 24.0837 48.6124 35.196 48.6124Z" fill="#EBEBEB"/>
<path d="M46.1221 45.1903C55.1712 39.4385 58.0268 27.1409 52.5002 17.7229C46.9736 8.30492 35.1576 5.33295 26.1085 11.0848C17.0594 16.8367 14.2038 29.1343 19.7304 38.5523C25.257 47.9702 37.073 50.9422 46.1221 45.1903Z" fill="#DBDBDB"/>
<path d="M44.5578 44.6699C53.3303 39.819 56.6635 28.4851 52.0025 19.3549C47.3416 10.2248 36.4516 6.75581 27.679 11.6067C18.9065 16.4577 15.5734 27.7916 20.2343 36.9217C24.8953 46.0518 35.7852 49.5208 44.5578 44.6699Z" fill="white"/>
<path opacity="0.5" d="M53.6967 24.164C45.506 29.3289 32.0442 37.8018 24.5202 42.4468C22.4093 40.5925 20.7154 38.2429 19.605 35.5691L44.4895 11.5659C49.1237 14.1046 52.5611 18.6892 53.6967 24.164Z" fill="#EBEBEB"/>
<path opacity="0.5" d="M54.0915 28.7915C54.0227 30.9304 53.6073 32.9771 52.9024 34.8744L30.4686 45.9162C29.4841 45.5768 28.5364 45.1532 27.636 44.6492C34.4123 40.5733 46.7958 33.1583 54.0915 28.7915Z" fill="#EBEBEB"/>
<path d="M36.2911 10.7764H35.9436V13.6139H36.2911V10.7764Z" fill="#0075FF"/>
<path d="M27.9263 13.0107L27.6248 13.1919L28.988 15.6492L29.2896 15.468L27.9263 13.0107Z" fill="#0075FF"/>
<path d="M21.7607 19.3006L21.5869 19.6138L23.948 21.0328L24.1218 20.7196L21.7607 19.3006Z" fill="#0075FF"/>
<path d="M22.1625 27.9561H19.436V28.3177H22.1625V27.9561Z" fill="#0075FF"/>
<path d="M23.9434 35.2414L21.5823 36.6602L21.756 36.9733L24.1171 35.5546L23.9434 35.2414Z" fill="#0075FF"/>
<path d="M28.9871 40.6209L27.6252 43.0791L27.9269 43.2601L29.2888 40.802L28.9871 40.6209Z" fill="#0075FF"/>
<path d="M36.2911 42.6606H35.9436V45.4982H36.2911V42.6606Z" fill="#0075FF"/>
<path d="M43.2449 40.62L42.9434 40.8013L44.3066 43.2586L44.6082 43.0774L43.2449 40.62Z" fill="#0075FF"/>
<path d="M48.2932 35.2435L48.1194 35.5566L50.4805 36.9757L50.6542 36.6625L48.2932 35.2435Z" fill="#0075FF"/>
<path d="M52.7987 27.9561H50.0723V28.3177H52.7987V27.9561Z" fill="#0075FF"/>
<path d="M50.4792 19.3031L48.1182 20.7222L48.2919 21.0354L50.653 19.6163L50.4792 19.3031Z" fill="#0075FF"/>
<path d="M44.3026 13.0123L42.9404 15.4702L43.2421 15.6513L44.6042 13.1934L44.3026 13.0123Z" fill="#0075FF"/>
<path d="M35.8558 44.2138L35.2639 26.8745L36.9708 26.8968L36.3194 44.2202L35.8558 44.2138Z" fill="#0075FF"/>
<path d="M25.4778 34.1843L36.6874 26.7383L37.5023 28.2985L25.6993 34.6079L25.4778 34.1843Z" fill="#A6A6A6"/>
<path d="M36.1179 28.7437C36.4397 28.7437 36.7006 28.4722 36.7006 28.1372C36.7006 27.8023 36.4397 27.5308 36.1179 27.5308C35.796 27.5308 35.5352 27.8023 35.5352 28.1372C35.5352 28.4722 35.796 28.7437 36.1179 28.7437Z" fill="#0075FF"/>
</svg>
