<svg width="25" height="24" viewBox="0 0 25 24" fill="none" xmlns="http://www.w3.org/2000/svg">
<path d="M19.1729 23.6519H6.69979C4.67291 23.6519 2.82424 22.0892 2.49014 20.0799L1.00895 11.1944C0.775081 9.81023 1.44329 8.03537 2.54582 7.15352L10.2635 0.95818C11.7559 -0.247389 14.1056 -0.236216 15.6091 0.969353L23.3269 7.15352C24.4183 8.03537 25.0865 9.81023 24.8637 11.1944L23.3826 20.0799C23.0485 22.0557 21.1664 23.6519 19.1729 23.6519ZM12.9252 1.75075C12.335 1.75075 11.7446 1.92932 11.3103 2.27536L3.59267 8.47071C2.95788 8.98419 2.52356 10.1228 2.6572 10.9265L4.13837 19.812C4.33883 20.9841 5.50816 21.9775 6.69979 21.9775H19.1729C20.3645 21.9775 21.5338 20.9841 21.7342 19.8008L23.2154 10.9153C23.349 10.1116 22.9037 8.96185 22.28 8.45953L14.5623 2.27536C14.1169 1.92932 13.5266 1.75075 12.9252 1.75075Z" fill="#292D32"/>
<path d="M12.9368 16.6083C10.9433 16.6083 9.31738 14.9785 9.31738 12.9804C9.31738 10.9823 10.9433 9.35254 12.9368 9.35254C14.9303 9.35254 16.5562 10.9823 16.5562 12.9804C16.5562 14.9785 14.9303 16.6083 12.9368 16.6083ZM12.9368 11.0269C11.8677 11.0269 10.9879 11.9088 10.9879 12.9804C10.9879 14.052 11.8677 14.9339 12.9368 14.9339C14.0059 14.9339 14.8857 14.052 14.8857 12.9804C14.8857 11.9088 14.0059 11.0269 12.9368 11.0269Z" fill="#292D32"/>
</svg>
