<svg width="228" height="220" viewBox="0 0 228 220" fill="none" xmlns="http://www.w3.org/2000/svg">
<path d="M55.6024 0.515625H54.2761V156.833H55.6024V0.515625Z" fill="#263238" fill-opacity="0.39"/>
<path d="M109.865 209.779L105.447 219.49H4.41888L0.0148926 209.779L43.0263 180.008H66.8538L109.865 209.779Z" fill="#FFFBB4"/>
<path d="M69.8389 151.324L66.8539 180.008H43.0263L40.0413 151.324H69.8389Z" fill="#FFFBB4"/>
<path opacity="0.1" d="M109.86 209.784L105.441 219.495H4.41504L0.00927734 209.784H109.86Z" fill="black"/>
<path d="M173.536 0.515625H172.209V125.504H173.536V0.515625Z" fill="#263238" fill-opacity="0.39"/>
<path d="M227.798 178.45L223.38 188.161H122.352L117.948 178.45L160.959 148.678H184.787L227.798 178.45Z" fill="#FFF859" fill-opacity="0.48"/>
<path d="M187.772 119.995L184.787 148.677H160.959L157.974 119.995H187.772Z" fill="#FFF859" fill-opacity="0.48"/>
<path opacity="0.1" d="M227.793 178.454L223.374 188.164H122.348L117.943 178.454H227.793Z" fill="black"/>
</svg>
