<svg width="182" height="77" viewBox="0 0 182 77" fill="none" xmlns="http://www.w3.org/2000/svg">
<path d="M0.973633 0.56464C0.973633 0.720497 1.77426 2.28776 2.09279 2.77265C2.61793 3.55195 3.66822 4.55638 4.46884 5.04128C4.84763 5.26641 5.53635 5.58679 6.00123 5.75131C7.58526 6.32279 7.74022 6.33145 13.93 6.40072C19.1728 6.46134 19.5688 6.47 20.2662 6.64317C22.6767 7.22332 24.1229 8.54813 24.6137 10.6089C24.8117 11.4229 24.8117 12.9382 24.6223 13.6742C24.3123 14.8518 23.6236 15.9168 22.6508 16.7048C21.9621 17.259 20.4297 18.0209 19.4483 18.298C17.804 18.7743 17.253 18.8089 12.4062 18.7916C9.8494 18.7829 7.94684 18.8089 7.94684 18.8522C7.94684 18.9561 9.39313 21.3546 11.7347 25.1472C12.7936 26.8617 14.1969 29.1563 14.8598 30.2559C16.5471 33.0787 17.1153 33.7714 18.3894 34.646C19.0609 35.1049 19.698 35.382 20.688 35.6418C21.4284 35.8409 21.7125 35.8669 23.6495 35.9015L25.7931 35.9448L25.552 35.5292C24.8203 34.2563 21.6178 29.3294 19.147 25.6667C18.3722 24.5238 17.7265 23.5453 17.7007 23.4934C17.6749 23.4241 18.0709 23.3808 18.9834 23.3462C21.4025 23.2596 23.4773 22.7487 25.4229 21.7702C28.9095 20.0038 30.7776 17.1031 31.122 12.9209C31.5696 7.50906 29.1678 3.43939 24.407 1.55175C23.3912 1.15344 21.7641 0.737816 20.688 0.599274C19.896 0.504028 0.973633 0.469391 0.973633 0.56464Z" fill="white"/>
<path d="M69.8877 0.607986C65.2561 1.20545 60.1941 4.08886 57.1982 7.82949C56.0274 9.28419 54.9771 11.2151 54.4433 12.869C53.9182 14.4968 53.7891 15.4147 53.7891 17.5707C53.7977 19.7181 53.9096 20.7572 54.3486 22.515C56.1135 29.6672 61.7265 34.4296 69.8016 35.6418C70.6711 35.7717 71.4115 35.7977 74.4074 35.789C78.5138 35.789 78.6171 35.7804 80.227 34.9751C82.1209 34.0399 83.4209 32.6112 84.0493 30.7669L84.2215 30.282L77.739 30.3079C71.4201 30.3253 71.2479 30.3166 70.3612 30.1434C65.1614 29.0784 61.7092 25.6235 60.7278 20.4974C60.0994 17.2071 60.306 14.7133 61.4252 12.2888C63.0264 8.79929 65.9879 6.60859 69.7155 6.14967C70.146 6.09772 71.7903 6.05442 73.3743 6.05442C76.9125 6.05442 78.4535 5.95918 79.2714 5.69941C80.6316 5.27512 81.8024 4.47851 82.6891 3.36151C83.197 2.71209 83.8771 1.43924 84.0407 0.833118L84.1182 0.512741L77.3086 0.521397C73.5551 0.530056 70.2234 0.573353 69.8877 0.607986Z" fill="white"/>
<path d="M107.681 0.564106C106.665 0.668015 105.339 0.893147 104.547 1.08364C94.0876 3.65533 88.0011 13.7949 91.195 23.3629C92.0473 25.926 93.4075 28.1253 95.3617 30.0909C96.9199 31.6581 98.5298 32.8184 100.45 33.7536C103.325 35.165 105.994 35.7798 109.274 35.7884C112.037 35.7971 114.267 35.3988 116.652 34.4636C122.884 32.0132 127.301 26.6793 128.17 20.5142C128.334 19.3279 128.334 16.9121 128.17 15.8037C127.017 8.08868 120.663 2.03612 112.364 0.728626C111.503 0.590084 108.439 0.486179 107.681 0.564106ZM112.089 6.21836C115.412 6.96302 118.296 8.90261 120.086 11.6042C121.361 13.5178 121.972 15.4227 122.075 17.7433C122.308 22.9993 118.873 27.8482 113.638 29.6839C112.132 30.2121 111.323 30.3333 109.317 30.3333C107.638 30.3333 107.44 30.316 106.476 30.0909C103.919 29.4848 101.956 28.4024 100.14 26.584C98.2715 24.6964 97.1696 22.6096 96.7564 20.1418C96.5756 19.0681 96.567 17.2671 96.7478 16.228C97.6 11.2838 101.526 7.2834 106.571 6.23568C107.802 5.97591 107.784 5.98457 109.618 6.01054C110.927 6.02786 111.469 6.07981 112.089 6.21836Z" fill="white"/>
<path d="M130.753 1.08358C130.942 1.41262 135.152 8.98914 140.111 17.9165C145.078 26.8438 149.176 34.1519 149.219 34.1519C149.271 34.1519 153.472 26.5927 158.56 17.3536L167.806 0.555393L165.981 0.529415C164.569 0.512096 164 0.538074 163.467 0.641983C162.124 0.919064 160.815 1.63775 159.834 2.6595C159.317 3.18769 158.93 3.85443 155.254 10.4265C149.563 20.6094 149.271 21.1202 149.219 21.1202C149.193 21.1202 148.944 20.696 148.668 20.1851C146.542 16.2972 139.663 4.01895 139.405 3.6293C138.63 2.48632 137.778 1.74166 136.624 1.20481C135.471 0.667957 134.92 0.581367 132.526 0.529415L130.426 0.494781L130.753 1.08358Z" fill="white"/>
<path d="M38.6979 15.3886C38.7237 29.3467 38.7323 30.1087 38.8873 30.6455C39.3866 32.4466 40.5144 33.7627 42.2534 34.594C42.9593 34.9317 44.0698 35.304 44.7758 35.4339L45.0512 35.4858V21.7442C45.0512 6.99812 45.0512 7.12801 44.6208 5.79454C44.1817 4.47839 43.3553 3.23151 42.3567 2.41758C41.711 1.88073 40.1614 1.09277 39.3005 0.867638L38.6807 0.694458L38.6979 15.3886Z" fill="white"/>
<path d="M179.729 0.910084C178.808 1.16985 178.205 1.44693 177.447 1.94049C175.855 2.9709 174.916 4.32168 174.331 6.3825L174.142 7.04923L174.116 21.2758L174.099 35.4937L174.331 35.4417C177.637 34.7144 179.522 33.1904 180.237 30.6707L180.426 29.9953L180.452 17.5265C180.461 10.6686 180.461 4.07924 180.452 2.88431L180.426 0.702271L179.729 0.910084Z" fill="white"/>

</svg>
