<svg width="182" height="77" viewBox="0 0 182 77" fill="none" xmlns="http://www.w3.org/2000/svg">
<path d="M0.973633 0.56464C0.973633 0.720497 1.77426 2.28776 2.09279 2.77265C2.61793 3.55195 3.66822 4.55638 4.46884 5.04128C4.84763 5.26641 5.53635 5.58679 6.00123 5.75131C7.58526 6.32279 7.74022 6.33145 13.93 6.40072C19.1728 6.46134 19.5688 6.47 20.2662 6.64317C22.6767 7.22332 24.1229 8.54813 24.6137 10.6089C24.8117 11.4229 24.8117 12.9382 24.6223 13.6742C24.3123 14.8518 23.6236 15.9168 22.6508 16.7048C21.9621 17.259 20.4297 18.0209 19.4483 18.298C17.804 18.7743 17.253 18.8089 12.4062 18.7916C9.8494 18.7829 7.94684 18.8089 7.94684 18.8522C7.94684 18.9561 9.39313 21.3546 11.7347 25.1472C12.7936 26.8617 14.1969 29.1563 14.8598 30.2559C16.5471 33.0787 17.1153 33.7714 18.3894 34.646C19.0609 35.1049 19.698 35.382 20.688 35.6418C21.4284 35.8409 21.7125 35.8669 23.6495 35.9015L25.7931 35.9448L25.552 35.5292C24.8203 34.2563 21.6178 29.3294 19.147 25.6667C18.3722 24.5238 17.7265 23.5453 17.7007 23.4934C17.6749 23.4241 18.0709 23.3808 18.9834 23.3462C21.4025 23.2596 23.4773 22.7487 25.4229 21.7702C28.9095 20.0038 30.7776 17.1031 31.122 12.9209C31.5696 7.50906 29.1678 3.43939 24.407 1.55175C23.3912 1.15344 21.7641 0.737816 20.688 0.599274C19.896 0.504028 0.973633 0.469391 0.973633 0.56464Z" fill="white"/>
<path d="M69.8877 0.607986C65.2561 1.20545 60.1941 4.08886 57.1982 7.82949C56.0274 9.28419 54.9771 11.2151 54.4433 12.869C53.9182 14.4968 53.7891 15.4147 53.7891 17.5707C53.7977 19.7181 53.9096 20.7572 54.3486 22.515C56.1135 29.6672 61.7265 34.4296 69.8016 35.6418C70.6711 35.7717 71.4115 35.7977 74.4074 35.789C78.5138 35.789 78.6171 35.7804 80.227 34.9751C82.1209 34.0399 83.4209 32.6112 84.0493 30.7669L84.2215 30.282L77.739 30.3079C71.4201 30.3253 71.2479 30.3166 70.3612 30.1434C65.1614 29.0784 61.7092 25.6235 60.7278 20.4974C60.0994 17.2071 60.306 14.7133 61.4252 12.2888C63.0264 8.79929 65.9879 6.60859 69.7155 6.14967C70.146 6.09772 71.7903 6.05442 73.3743 6.05442C76.9125 6.05442 78.4535 5.95918 79.2714 5.69941C80.6316 5.27512 81.8024 4.47851 82.6891 3.36151C83.197 2.71209 83.8771 1.43924 84.0407 0.833118L84.1182 0.512741L77.3086 0.521397C73.5551 0.530056 70.2234 0.573353 69.8877 0.607986Z" fill="white"/>
<path d="M107.681 0.564106C106.665 0.668015 105.339 0.893147 104.547 1.08364C94.0876 3.65533 88.0011 13.7949 91.195 23.3629C92.0473 25.926 93.4075 28.1253 95.3617 30.0909C96.9199 31.6581 98.5298 32.8184 100.45 33.7536C103.325 35.165 105.994 35.7798 109.274 35.7884C112.037 35.7971 114.267 35.3988 116.652 34.4636C122.884 32.0132 127.301 26.6793 128.17 20.5142C128.334 19.3279 128.334 16.9121 128.17 15.8037C127.017 8.08868 120.663 2.03612 112.364 0.728626C111.503 0.590084 108.439 0.486179 107.681 0.564106ZM112.089 6.21836C115.412 6.96302 118.296 8.90261 120.086 11.6042C121.361 13.5178 121.972 15.4227 122.075 17.7433C122.308 22.9993 118.873 27.8482 113.638 29.6839C112.132 30.2121 111.323 30.3333 109.317 30.3333C107.638 30.3333 107.44 30.316 106.476 30.0909C103.919 29.4848 101.956 28.4024 100.14 26.584C98.2715 24.6964 97.1696 22.6096 96.7564 20.1418C96.5756 19.0681 96.567 17.2671 96.7478 16.228C97.6 11.2838 101.526 7.2834 106.571 6.23568C107.802 5.97591 107.784 5.98457 109.618 6.01054C110.927 6.02786 111.469 6.07981 112.089 6.21836Z" fill="white"/>
<path d="M130.753 1.08358C130.942 1.41262 135.152 8.98914 140.111 17.9165C145.078 26.8438 149.176 34.1519 149.219 34.1519C149.271 34.1519 153.472 26.5927 158.56 17.3536L167.806 0.555393L165.981 0.529415C164.569 0.512096 164 0.538074 163.467 0.641983C162.124 0.919064 160.815 1.63775 159.834 2.6595C159.317 3.18769 158.93 3.85443 155.254 10.4265C149.563 20.6094 149.271 21.1202 149.219 21.1202C149.193 21.1202 148.944 20.696 148.668 20.1851C146.542 16.2972 139.663 4.01895 139.405 3.6293C138.63 2.48632 137.778 1.74166 136.624 1.20481C135.471 0.667957 134.92 0.581367 132.526 0.529415L130.426 0.494781L130.753 1.08358Z" fill="white"/>
<path d="M38.6979 15.3886C38.7237 29.3467 38.7323 30.1087 38.8873 30.6455C39.3866 32.4466 40.5144 33.7627 42.2534 34.594C42.9593 34.9317 44.0698 35.304 44.7758 35.4339L45.0512 35.4858V21.7442C45.0512 6.99812 45.0512 7.12801 44.6208 5.79454C44.1817 4.47839 43.3553 3.23151 42.3567 2.41758C41.711 1.88073 40.1614 1.09277 39.3005 0.867638L38.6807 0.694458L38.6979 15.3886Z" fill="white"/>
<path d="M179.729 0.910084C178.808 1.16985 178.205 1.44693 177.447 1.94049C175.855 2.9709 174.916 4.32168 174.331 6.3825L174.142 7.04923L174.116 21.2758L174.099 35.4937L174.331 35.4417C177.637 34.7144 179.522 33.1904 180.237 30.6707L180.426 29.9953L180.452 17.5265C180.461 10.6686 180.461 4.07924 180.452 2.88431L180.426 0.702271L179.729 0.910084Z" fill="white"/>
<path d="M8.84486 65.9048C9.41419 66.0262 9.87152 66.3108 10.2169 66.7588C10.5622 67.1975 10.7349 67.7015 10.7349 68.2708C10.7349 69.0922 10.4455 69.7455 9.86686 70.2308C9.29752 70.7068 8.49952 70.9448 7.47286 70.9448H2.89486V61.1168H7.31886C8.31752 61.1168 9.09686 61.3455 9.65686 61.8028C10.2262 62.2602 10.5109 62.8808 10.5109 63.6648C10.5109 64.2435 10.3569 64.7242 10.0489 65.1068C9.75019 65.4895 9.34886 65.7555 8.84486 65.9048ZM5.28886 65.0928H6.85686C7.24886 65.0928 7.54752 65.0088 7.75286 64.8408C7.96752 64.6635 8.07486 64.4068 8.07486 64.0708C8.07486 63.7348 7.96752 63.4782 7.75286 63.3008C7.54752 63.1235 7.24886 63.0348 6.85686 63.0348H5.28886V65.0928ZM7.05286 69.0128C7.45419 69.0128 7.76219 68.9242 7.97686 68.7468C8.20086 68.5602 8.31286 68.2942 8.31286 67.9488C8.31286 67.6035 8.19619 67.3328 7.96286 67.1368C7.73886 66.9408 7.42619 66.8428 7.02486 66.8428H5.28886V69.0128H7.05286ZM14.5174 64.4348C14.7974 64.0055 15.1474 63.6695 15.5674 63.4268C15.9874 63.1748 16.454 63.0488 16.9674 63.0488V65.5828H16.3094C15.712 65.5828 15.264 65.7135 14.9654 65.9748C14.6667 66.2268 14.5174 66.6748 14.5174 67.3188V70.9448H12.1234V63.1328H14.5174V64.4348ZM19.3157 62.3208C18.8957 62.3208 18.5503 62.1995 18.2797 61.9568C18.0183 61.7048 17.8877 61.3968 17.8877 61.0328C17.8877 60.6595 18.0183 60.3515 18.2797 60.1088C18.5503 59.8568 18.8957 59.7308 19.3157 59.7308C19.7263 59.7308 20.0623 59.8568 20.3237 60.1088C20.5943 60.3515 20.7297 60.6595 20.7297 61.0328C20.7297 61.3968 20.5943 61.7048 20.3237 61.9568C20.0623 62.1995 19.7263 62.3208 19.3157 62.3208ZM20.5057 63.1328V70.9448H18.1117V63.1328H20.5057ZM27.0006 63.0488C27.9152 63.0488 28.6432 63.3475 29.1846 63.9448C29.7352 64.5328 30.0106 65.3448 30.0106 66.3808V70.9448H27.6306V66.7028C27.6306 66.1802 27.4952 65.7742 27.2246 65.4848C26.9539 65.1955 26.5899 65.0508 26.1326 65.0508C25.6752 65.0508 25.3112 65.1955 25.0406 65.4848C24.7699 65.7742 24.6346 66.1802 24.6346 66.7028V70.9448H22.2406V63.1328H24.6346V64.1688C24.8772 63.8235 25.2039 63.5528 25.6146 63.3568C26.0252 63.1515 26.4872 63.0488 27.0006 63.0488ZM34.6422 63.0208C35.1928 63.0208 35.6735 63.1328 36.0842 63.3568C36.5042 63.5808 36.8262 63.8748 37.0502 64.2388V63.1328H39.4442V70.9308C39.4442 71.6495 39.2995 72.2982 39.0102 72.8768C38.7302 73.4648 38.2962 73.9315 37.7082 74.2768C37.1295 74.6222 36.4062 74.7948 35.5382 74.7948C34.3808 74.7948 33.4428 74.5195 32.7242 73.9688C32.0055 73.4275 31.5948 72.6902 31.4922 71.7568H33.8582C33.9328 72.0555 34.1102 72.2888 34.3902 72.4568C34.6702 72.6342 35.0155 72.7228 35.4262 72.7228C35.9208 72.7228 36.3128 72.5782 36.6022 72.2888C36.9008 72.0088 37.0502 71.5562 37.0502 70.9308V69.8248C36.8168 70.1888 36.4948 70.4875 36.0842 70.7208C35.6735 70.9448 35.1928 71.0568 34.6422 71.0568C33.9982 71.0568 33.4148 70.8935 32.8922 70.5668C32.3695 70.2308 31.9542 69.7595 31.6462 69.1528C31.3475 68.5368 31.1982 67.8275 31.1982 67.0248C31.1982 66.2222 31.3475 65.5175 31.6462 64.9108C31.9542 64.3042 32.3695 63.8375 32.8922 63.5108C33.4148 63.1842 33.9982 63.0208 34.6422 63.0208ZM37.0502 67.0388C37.0502 66.4415 36.8822 65.9702 36.5462 65.6248C36.2195 65.2795 35.8182 65.1068 35.3422 65.1068C34.8662 65.1068 34.4602 65.2795 34.1242 65.6248C33.7975 65.9608 33.6342 66.4275 33.6342 67.0248C33.6342 67.6222 33.7975 68.0982 34.1242 68.4528C34.4602 68.7982 34.8662 68.9708 35.3422 68.9708C35.8182 68.9708 36.2195 68.7982 36.5462 68.4528C36.8822 68.1075 37.0502 67.6362 37.0502 67.0388ZM42.3801 62.3208C41.9601 62.3208 41.6148 62.1995 41.3441 61.9568C41.0828 61.7048 40.9521 61.3968 40.9521 61.0328C40.9521 60.6595 41.0828 60.3515 41.3441 60.1088C41.6148 59.8568 41.9601 59.7308 42.3801 59.7308C42.7908 59.7308 43.1268 59.8568 43.3881 60.1088C43.6588 60.3515 43.7941 60.6595 43.7941 61.0328C43.7941 61.3968 43.6588 61.7048 43.3881 61.9568C43.1268 62.1995 42.7908 62.3208 42.3801 62.3208ZM43.5701 63.1328V70.9448H41.1761V63.1328H43.5701ZM50.065 63.0488C50.9797 63.0488 51.7077 63.3475 52.249 63.9448C52.7997 64.5328 53.075 65.3448 53.075 66.3808V70.9448H50.695V66.7028C50.695 66.1802 50.5597 65.7742 50.289 65.4848C50.0183 65.1955 49.6543 65.0508 49.197 65.0508C48.7397 65.0508 48.3757 65.1955 48.105 65.4848C47.8343 65.7742 47.699 66.1802 47.699 66.7028V70.9448H45.305V63.1328H47.699V64.1688C47.9417 63.8235 48.2683 63.5528 48.679 63.3568C49.0897 63.1515 49.5517 63.0488 50.065 63.0488ZM57.7066 63.0208C58.2573 63.0208 58.7379 63.1328 59.1486 63.3568C59.5686 63.5808 59.8906 63.8748 60.1146 64.2388V63.1328H62.5086V70.9308C62.5086 71.6495 62.3639 72.2982 62.0746 72.8768C61.7946 73.4648 61.3606 73.9315 60.7726 74.2768C60.1939 74.6222 59.4706 74.7948 58.6026 74.7948C57.4453 74.7948 56.5073 74.5195 55.7886 73.9688C55.0699 73.4275 54.6593 72.6902 54.5566 71.7568H56.9226C56.9973 72.0555 57.1746 72.2888 57.4546 72.4568C57.7346 72.6342 58.0799 72.7228 58.4906 72.7228C58.9853 72.7228 59.3773 72.5782 59.6666 72.2888C59.9653 72.0088 60.1146 71.5562 60.1146 70.9308V69.8248C59.8813 70.1888 59.5593 70.4875 59.1486 70.7208C58.7379 70.9448 58.2573 71.0568 57.7066 71.0568C57.0626 71.0568 56.4793 70.8935 55.9566 70.5668C55.4339 70.2308 55.0186 69.7595 54.7106 69.1528C54.4119 68.5368 54.2626 67.8275 54.2626 67.0248C54.2626 66.2222 54.4119 65.5175 54.7106 64.9108C55.0186 64.3042 55.4339 63.8375 55.9566 63.5108C56.4793 63.1842 57.0626 63.0208 57.7066 63.0208ZM60.1146 67.0388C60.1146 66.4415 59.9466 65.9702 59.6106 65.6248C59.2839 65.2795 58.8826 65.1068 58.4066 65.1068C57.9306 65.1068 57.5246 65.2795 57.1886 65.6248C56.8619 65.9608 56.6986 66.4275 56.6986 67.0248C56.6986 67.6222 56.8619 68.0982 57.1886 68.4528C57.5246 68.7982 57.9306 68.9708 58.4066 68.9708C58.8826 68.9708 59.2839 68.7982 59.6106 68.4528C59.9466 68.1075 60.1146 67.6362 60.1146 67.0388ZM66.8014 66.0168C66.8014 65.0462 67.0114 64.1828 67.4314 63.4268C67.8514 62.6615 68.4347 62.0688 69.1814 61.6488C69.9374 61.2195 70.7914 61.0048 71.7434 61.0048C72.91 61.0048 73.9087 61.3128 74.7394 61.9288C75.57 62.5448 76.1254 63.3848 76.4054 64.4488H73.7734C73.5774 64.0382 73.2974 63.7255 72.9334 63.5108C72.5787 63.2962 72.1727 63.1888 71.7154 63.1888C70.978 63.1888 70.3807 63.4455 69.9234 63.9588C69.466 64.4722 69.2374 65.1582 69.2374 66.0168C69.2374 66.8755 69.466 67.5615 69.9234 68.0748C70.3807 68.5882 70.978 68.8448 71.7154 68.8448C72.1727 68.8448 72.5787 68.7375 72.9334 68.5228C73.2974 68.3082 73.5774 67.9955 73.7734 67.5848H76.4054C76.1254 68.6488 75.57 69.4888 74.7394 70.1048C73.9087 70.7115 72.91 71.0148 71.7434 71.0148C70.7914 71.0148 69.9374 70.8048 69.1814 70.3848C68.4347 69.9555 67.8514 69.3628 67.4314 68.6068C67.0114 67.8508 66.8014 66.9875 66.8014 66.0168ZM81.4274 71.0568C80.6621 71.0568 79.9714 70.8935 79.3554 70.5668C78.7488 70.2402 78.2681 69.7735 77.9134 69.1668C77.5681 68.5602 77.3954 67.8508 77.3954 67.0388C77.3954 66.2362 77.5728 65.5315 77.9274 64.9248C78.2821 64.3088 78.7674 63.8375 79.3834 63.5108C79.9994 63.1842 80.6901 63.0208 81.4554 63.0208C82.2208 63.0208 82.9114 63.1842 83.5274 63.5108C84.1434 63.8375 84.6288 64.3088 84.9834 64.9248C85.3381 65.5315 85.5154 66.2362 85.5154 67.0388C85.5154 67.8415 85.3334 68.5508 84.9694 69.1668C84.6148 69.7735 84.1248 70.2402 83.4994 70.5668C82.8834 70.8935 82.1928 71.0568 81.4274 71.0568ZM81.4274 68.9848C81.8848 68.9848 82.2721 68.8168 82.5894 68.4808C82.9161 68.1448 83.0794 67.6642 83.0794 67.0388C83.0794 66.4135 82.9208 65.9328 82.6034 65.5968C82.2954 65.2608 81.9128 65.0928 81.4554 65.0928C80.9888 65.0928 80.6014 65.2608 80.2934 65.5968C79.9854 65.9235 79.8314 66.4042 79.8314 67.0388C79.8314 67.6642 79.9808 68.1448 80.2794 68.4808C80.5874 68.8168 80.9701 68.9848 81.4274 68.9848ZM91.5455 63.0488C92.4601 63.0488 93.1881 63.3475 93.7295 63.9448C94.2801 64.5328 94.5555 65.3448 94.5555 66.3808V70.9448H92.1755V66.7028C92.1755 66.1802 92.0401 65.7742 91.7695 65.4848C91.4988 65.1955 91.1348 65.0508 90.6775 65.0508C90.2201 65.0508 89.8561 65.1955 89.5855 65.4848C89.3148 65.7742 89.1795 66.1802 89.1795 66.7028V70.9448H86.7855V63.1328H89.1795V64.1688C89.4221 63.8235 89.7488 63.5528 90.1595 63.3568C90.5701 63.1515 91.0321 63.0488 91.5455 63.0488ZM95.7431 67.0388C95.7431 66.2268 95.9064 65.5175 96.2331 64.9108C96.5691 64.3042 97.0311 63.8375 97.6191 63.5108C98.2164 63.1842 98.8977 63.0208 99.6631 63.0208C100.643 63.0208 101.46 63.2775 102.113 63.7908C102.776 64.3042 103.21 65.0275 103.415 65.9608H100.867C100.652 65.3635 100.237 65.0648 99.6211 65.0648C99.1824 65.0648 98.8324 65.2375 98.5711 65.5828C98.3097 65.9188 98.1791 66.4042 98.1791 67.0388C98.1791 67.6735 98.3097 68.1635 98.5711 68.5088C98.8324 68.8448 99.1824 69.0128 99.6211 69.0128C100.237 69.0128 100.652 68.7142 100.867 68.1168H103.415C103.21 69.0315 102.776 69.7502 102.113 70.2728C101.45 70.7955 100.634 71.0568 99.6631 71.0568C98.8977 71.0568 98.2164 70.8935 97.6191 70.5668C97.0311 70.2402 96.5691 69.7735 96.2331 69.1668C95.9064 68.5602 95.7431 67.8508 95.7431 67.0388ZM112.06 66.9128C112.06 67.1368 112.046 67.3702 112.018 67.6128H106.6C106.637 68.0982 106.791 68.4715 107.062 68.7328C107.342 68.9848 107.682 69.1108 108.084 69.1108C108.681 69.1108 109.096 68.8588 109.33 68.3548H111.878C111.747 68.8682 111.509 69.3302 111.164 69.7408C110.828 70.1515 110.403 70.4735 109.89 70.7068C109.376 70.9402 108.802 71.0568 108.168 71.0568C107.402 71.0568 106.721 70.8935 106.124 70.5668C105.526 70.2402 105.06 69.7735 104.724 69.1668C104.388 68.5602 104.22 67.8508 104.22 67.0388C104.22 66.2268 104.383 65.5175 104.71 64.9108C105.046 64.3042 105.512 63.8375 106.11 63.5108C106.707 63.1842 107.393 63.0208 108.168 63.0208C108.924 63.0208 109.596 63.1795 110.184 63.4968C110.772 63.8142 111.229 64.2668 111.556 64.8548C111.892 65.4428 112.06 66.1288 112.06 66.9128ZM109.61 66.2828C109.61 65.8722 109.47 65.5455 109.19 65.3028C108.91 65.0602 108.56 64.9388 108.14 64.9388C107.738 64.9388 107.398 65.0555 107.118 65.2888C106.847 65.5222 106.679 65.8535 106.614 66.2828H109.61ZM115.717 64.2388C115.95 63.8748 116.272 63.5808 116.683 63.3568C117.093 63.1328 117.574 63.0208 118.125 63.0208C118.769 63.0208 119.352 63.1842 119.875 63.5108C120.397 63.8375 120.808 64.3042 121.107 64.9108C121.415 65.5175 121.569 66.2222 121.569 67.0248C121.569 67.8275 121.415 68.5368 121.107 69.1528C120.808 69.7595 120.397 70.2308 119.875 70.5668C119.352 70.8935 118.769 71.0568 118.125 71.0568C117.583 71.0568 117.103 70.9448 116.683 70.7208C116.272 70.4968 115.95 70.2075 115.717 69.8528V74.6688H113.323V63.1328H115.717V64.2388ZM119.133 67.0248C119.133 66.4275 118.965 65.9608 118.629 65.6248C118.302 65.2795 117.896 65.1068 117.411 65.1068C116.935 65.1068 116.529 65.2795 116.193 65.6248C115.866 65.9702 115.703 66.4415 115.703 67.0388C115.703 67.6362 115.866 68.1075 116.193 68.4528C116.529 68.7982 116.935 68.9708 117.411 68.9708C117.887 68.9708 118.293 68.7982 118.629 68.4528C118.965 68.0982 119.133 67.6222 119.133 67.0248ZM127.179 68.9148V70.9448H125.961C125.093 70.9448 124.416 70.7348 123.931 70.3148C123.445 69.8855 123.203 69.1902 123.203 68.2288V65.1208H122.251V63.1328H123.203V61.2288H125.597V63.1328H127.165V65.1208H125.597V68.2568C125.597 68.4902 125.653 68.6582 125.765 68.7608C125.877 68.8635 126.063 68.9148 126.325 68.9148H127.179ZM131.69 71.0568C131.009 71.0568 130.402 70.9402 129.87 70.7068C129.338 70.4735 128.918 70.1562 128.61 69.7548C128.302 69.3442 128.129 68.8868 128.092 68.3828H130.458C130.486 68.6535 130.612 68.8728 130.836 69.0408C131.06 69.2088 131.335 69.2928 131.662 69.2928C131.961 69.2928 132.189 69.2368 132.348 69.1248C132.516 69.0035 132.6 68.8495 132.6 68.6628C132.6 68.4388 132.483 68.2755 132.25 68.1728C132.017 68.0608 131.639 67.9395 131.116 67.8088C130.556 67.6782 130.089 67.5428 129.716 67.4028C129.343 67.2535 129.021 67.0248 128.75 66.7168C128.479 66.3995 128.344 65.9748 128.344 65.4428C128.344 64.9948 128.465 64.5888 128.708 64.2248C128.96 63.8515 129.324 63.5575 129.8 63.3428C130.285 63.1282 130.859 63.0208 131.522 63.0208C132.502 63.0208 133.272 63.2635 133.832 63.7488C134.401 64.2342 134.728 64.8782 134.812 65.6808H132.6C132.563 65.4102 132.441 65.1955 132.236 65.0368C132.04 64.8782 131.779 64.7988 131.452 64.7988C131.172 64.7988 130.957 64.8548 130.808 64.9668C130.659 65.0695 130.584 65.2142 130.584 65.4008C130.584 65.6248 130.701 65.7928 130.934 65.9048C131.177 66.0168 131.55 66.1288 132.054 66.2408C132.633 66.3902 133.104 66.5395 133.468 66.6888C133.832 66.8288 134.149 67.0622 134.42 67.3888C134.7 67.7062 134.845 68.1355 134.854 68.6768C134.854 69.1342 134.723 69.5448 134.462 69.9088C134.21 70.2635 133.841 70.5435 133.356 70.7488C132.88 70.9542 132.325 71.0568 131.69 71.0568ZM143.639 68.9148V70.9448H142.421C141.553 70.9448 140.877 70.7348 140.391 70.3148C139.906 69.8855 139.663 69.1902 139.663 68.2288V65.1208H138.711V63.1328H139.663V61.2288H142.057V63.1328H143.625V65.1208H142.057V68.2568C142.057 68.4902 142.113 68.6582 142.225 68.7608C142.337 68.8635 142.524 68.9148 142.785 68.9148H143.639ZM148.529 71.0568C147.764 71.0568 147.073 70.8935 146.457 70.5668C145.85 70.2402 145.37 69.7735 145.015 69.1668C144.67 68.5602 144.497 67.8508 144.497 67.0388C144.497 66.2362 144.674 65.5315 145.029 64.9248C145.384 64.3088 145.869 63.8375 146.485 63.5108C147.101 63.1842 147.792 63.0208 148.557 63.0208C149.322 63.0208 150.013 63.1842 150.629 63.5108C151.245 63.8375 151.73 64.3088 152.085 64.9248C152.44 65.5315 152.617 66.2362 152.617 67.0388C152.617 67.8415 152.435 68.5508 152.071 69.1668C151.716 69.7735 151.226 70.2402 150.601 70.5668C149.985 70.8935 149.294 71.0568 148.529 71.0568ZM148.529 68.9848C148.986 68.9848 149.374 68.8168 149.691 68.4808C150.018 68.1448 150.181 67.6642 150.181 67.0388C150.181 66.4135 150.022 65.9328 149.705 65.5968C149.397 65.2608 149.014 65.0928 148.557 65.0928C148.09 65.0928 147.703 65.2608 147.395 65.5968C147.087 65.9235 146.933 66.4042 146.933 67.0388C146.933 67.6642 147.082 68.1448 147.381 68.4808C147.689 68.8168 148.072 68.9848 148.529 68.9848ZM159.248 69.0968H162.384V70.9448H156.854V61.1168H159.248V69.0968ZM164.73 62.3208C164.31 62.3208 163.964 62.1995 163.694 61.9568C163.432 61.7048 163.302 61.3968 163.302 61.0328C163.302 60.6595 163.432 60.3515 163.694 60.1088C163.964 59.8568 164.31 59.7308 164.73 59.7308C165.14 59.7308 165.476 59.8568 165.738 60.1088C166.008 60.3515 166.144 60.6595 166.144 61.0328C166.144 61.3968 166.008 61.7048 165.738 61.9568C165.476 62.1995 165.14 62.3208 164.73 62.3208ZM165.92 63.1328V70.9448H163.526V63.1328H165.92ZM171.575 65.1208H170.287V70.9448H167.893V65.1208H167.025V63.1328H167.893V62.9088C167.893 61.9475 168.168 61.2195 168.719 60.7248C169.269 60.2208 170.077 59.9688 171.141 59.9688C171.318 59.9688 171.449 59.9735 171.533 59.9828V62.0128C171.075 61.9848 170.753 62.0502 170.567 62.2088C170.38 62.3675 170.287 62.6522 170.287 63.0628V63.1328H171.575V65.1208ZM180.064 66.9128C180.064 67.1368 180.05 67.3702 180.022 67.6128H174.604C174.641 68.0982 174.795 68.4715 175.066 68.7328C175.346 68.9848 175.686 69.1108 176.088 69.1108C176.685 69.1108 177.1 68.8588 177.334 68.3548H179.882C179.751 68.8682 179.513 69.3302 179.168 69.7408C178.832 70.1515 178.407 70.4735 177.894 70.7068C177.38 70.9402 176.806 71.0568 176.172 71.0568C175.406 71.0568 174.725 70.8935 174.128 70.5668C173.53 70.2402 173.064 69.7735 172.728 69.1668C172.392 68.5602 172.224 67.8508 172.224 67.0388C172.224 66.2268 172.387 65.5175 172.714 64.9108C173.05 64.3042 173.516 63.8375 174.114 63.5108C174.711 63.1842 175.397 63.0208 176.172 63.0208C176.928 63.0208 177.6 63.1795 178.188 63.4968C178.776 63.8142 179.233 64.2668 179.56 64.8548C179.896 65.4428 180.064 66.1288 180.064 66.9128ZM177.614 66.2828C177.614 65.8722 177.474 65.5455 177.194 65.3028C176.914 65.0602 176.564 64.9388 176.144 64.9388C175.742 64.9388 175.402 65.0555 175.122 65.2888C174.851 65.5222 174.683 65.8535 174.618 66.2828H177.614Z" fill="white"/>
</svg>
