<svg width="16" height="19" viewBox="0 0 16 19" fill="none" xmlns="http://www.w3.org/2000/svg">
<path d="M5.88023 0.596191C5.39699 0.596191 5.00523 0.987946 5.00523 1.47119C5.00523 1.95444 5.39699 2.34619 5.88023 2.34619V0.596191ZM9.74773 2.34619C10.231 2.34619 10.6227 1.95444 10.6227 1.47119C10.6227 0.987946 10.231 0.596191 9.74773 0.596191V2.34619ZM6.41398 15.4712C6.41398 14.988 6.02222 14.5962 5.53898 14.5962C5.05574 14.5962 4.66398 14.988 4.66398 15.4712H6.41398ZM10.964 15.4712C10.964 14.988 10.5722 14.5962 10.089 14.5962C9.60575 14.5962 9.21398 14.988 9.21398 15.4712H10.964ZM7.81398 3.60153L7.83977 2.72691C7.82285 2.72641 7.80605 2.7264 7.78913 2.72688L7.81398 3.60153ZM13.4947 8.77219L14.3664 8.69694C14.3649 8.68003 14.3631 8.66323 14.3606 8.64643L13.4947 8.77219ZM14.1772 12.2722L13.3411 12.5301C13.3695 12.6223 13.4129 12.7092 13.4698 12.7872L14.1772 12.2722ZM14.4422 14.5029L15.2027 14.9357C15.221 14.9033 15.2374 14.8698 15.2516 14.8354L14.4422 14.5029ZM12.8269 15.4677V16.3428L12.838 16.3426L12.8269 15.4677ZM2.79875 15.4677L2.78769 16.3427H2.79875V15.4677ZM1.1835 14.5029L0.374419 14.8361C0.3885 14.8702 0.40474 14.9035 0.423033 14.9357L1.1835 14.5029ZM1.44398 12.2757L2.15289 12.7886C2.20893 12.7112 2.2519 12.625 2.28009 12.5336L1.44398 12.2757ZM2.12648 8.77569L1.26049 8.65039C1.2581 8.66708 1.25617 8.68376 1.25473 8.70044L2.12648 8.77569ZM5.88023 2.34619H9.74773V0.596191H5.88023V2.34619ZM4.66398 15.4712C4.66398 17.2221 6.05348 18.6795 7.81398 18.6795V16.9295C7.06148 16.9295 6.41398 16.2977 6.41398 15.4712H4.66398ZM7.81398 18.6795C9.57448 18.6795 10.964 17.2221 10.964 15.4712H9.21398C9.21398 16.2977 8.56648 16.9295 7.81398 16.9295V18.6795ZM7.7882 4.47614C10.2126 4.54756 12.2654 6.39518 12.6287 8.89796L14.3606 8.64643C13.8797 5.33425 11.145 2.82428 7.83977 2.72691L7.7882 4.47614ZM12.6229 8.84744C12.7309 10.098 12.9716 11.3329 13.3411 12.5301L15.0133 12.0142C14.6806 10.9361 14.4636 9.82371 14.3664 8.69694L12.6229 8.84744ZM13.4698 12.7872C13.7577 13.1827 13.8217 13.7105 13.6328 14.1704L15.2516 14.8354C15.67 13.817 15.5324 12.6472 14.8846 11.7572L13.4698 12.7872ZM13.6817 14.07C13.4959 14.3967 13.1643 14.5884 12.8159 14.5928L12.838 16.3426C13.8221 16.3302 14.7168 15.7893 15.2027 14.9357L13.6817 14.07ZM12.8269 14.5927H2.79875V16.3427L12.8269 16.3428V14.5927ZM2.8098 14.5928C2.46141 14.5884 2.12987 14.3967 1.94396 14.07L0.423033 14.9357C0.908915 15.7893 1.8036 16.3303 2.78769 16.3427L2.8098 14.5928ZM1.99257 14.1697C1.80364 13.7109 1.86664 13.1842 2.15289 12.7886L0.735094 11.7628C0.0911756 12.6528 -0.0439713 13.8201 0.374419 14.8361L1.99257 14.1697ZM2.28009 12.5336C2.64951 11.3364 2.8903 10.1015 2.99824 8.85094L1.25473 8.70044C1.15746 9.82721 0.940532 10.9396 0.60788 12.0177L2.28009 12.5336ZM2.99248 8.90099C3.35494 6.39482 5.41128 4.54501 7.83883 4.47617L7.78913 2.72688C4.47952 2.82073 1.74019 5.33377 1.26049 8.65039L2.99248 8.90099Z" fill="black"/>
</svg>
