<svg width="27" height="28" viewBox="0 0 27 28" fill="none" xmlns="http://www.w3.org/2000/svg">
<g opacity="0.5">
<path fill-rule="evenodd" clip-rule="evenodd" d="M2.5708 7.5406C2.5708 7.07592 2.94663 6.69922 3.41022 6.69922H23.5563C24.0199 6.69922 24.3957 7.07592 24.3957 7.5406C24.3957 8.00528 24.0199 8.38198 23.5563 8.38198H3.41022C2.94663 8.38198 2.5708 8.00528 2.5708 7.5406ZM2.5708 12.028C2.5708 11.5633 2.94663 11.1866 3.41022 11.1866H23.5563C24.0199 11.1866 24.3957 11.5633 24.3957 12.028C24.3957 12.4926 24.0199 12.8693 23.5563 12.8693H3.41022C2.94663 12.8693 2.5708 12.4926 2.5708 12.028ZM2.5708 16.5153C2.5708 16.0507 2.94663 15.6739 3.41022 15.6739H12.364C12.8276 15.6739 13.2034 16.0507 13.2034 16.5153C13.2034 16.98 12.8276 17.3567 12.364 17.3567H3.41022C2.94663 17.3567 2.5708 16.98 2.5708 16.5153ZM2.5708 21.0027C2.5708 20.538 2.94663 20.1613 3.41022 20.1613H12.364C12.8276 20.1613 13.2034 20.538 13.2034 21.0027C13.2034 21.4674 12.8276 21.8441 12.364 21.8441H3.41022C2.94663 21.8441 2.5708 21.4674 2.5708 21.0027Z" fill="black"/>
</g>
<path d="M21.1783 16.6481C23.0293 17.7193 23.9549 18.2549 24.0908 19.0276C24.1248 19.221 24.1248 19.4188 24.0908 19.6121C23.9549 20.3848 23.0293 20.9204 21.1783 21.9916C19.3274 23.0627 18.4018 23.5983 17.6662 23.33C17.4821 23.2629 17.3113 23.1639 17.1612 23.0377C16.5615 22.5333 16.5615 21.4622 16.5615 19.3198C16.5615 17.1774 16.5615 16.1063 17.1612 15.6019C17.3113 15.4757 17.4821 15.3769 17.6662 15.3097C18.4018 15.0413 19.3274 15.5769 21.1783 16.6481Z" fill="black"/>
</svg>
