<svg width="429" height="621" viewBox="0 0 429 621" fill="none" xmlns="http://www.w3.org/2000/svg">
<path d="M-49.858 2.9342C-46.3752 9.43988 -31.8467 27.1554 -21.0002 37.9648C12.6342 71.6944 49.5523 91.1114 97.4166 100.119C108.263 102.221 112.841 102.321 182.497 103.022C253.846 103.622 256.433 103.722 264.494 105.824C313.85 118.836 346.092 158.27 346.191 205.712C346.191 219.224 343.902 229.132 338.23 240.843C324.399 269.167 291.262 293.288 254.344 301.896C248.273 303.297 238.92 303.698 193.543 304.198L140.007 304.698L144.385 310.704C162.894 336.226 178.816 361.748 219.714 431.61C243.796 472.645 257.926 494.765 274.445 516.884C318.527 576.036 364.501 606.863 424.008 616.872C432.367 618.373 466.598 620.775 467.394 619.974C467.892 619.474 367.287 461.536 336.539 414.394C328.08 401.483 321.612 390.674 322.01 390.273C322.408 389.773 325.991 388.272 329.772 386.77C352.361 377.863 372.163 364.851 390.871 346.735C436.049 302.997 458.737 242.044 452.667 180.99C445.801 113.531 408.285 61.9859 342.708 30.3582C311.96 15.5452 274.246 5.3363 238.223 1.93335C231.456 1.33282 174.437 0.932434 88.1621 0.932434H-50.9526L-49.858 2.9342Z" fill="url(#paint0_linear_132_5202)" fill-opacity="0.05"/>
<defs>
<linearGradient id="paint0_linear_132_5202" x1="403.542" y1="606.144" x2="2.08642" y2="-209.025" gradientUnits="userSpaceOnUse">
<stop stop-color="white"/>
<stop offset="1" stop-color="white" stop-opacity="1"/>
</linearGradient>
</defs>
</svg>
