<svg width="21" height="21" viewBox="0 0 21 21" fill="none" xmlns="http://www.w3.org/2000/svg">
<path d="M10.929 2.64099C10.6638 2.64099 10.4096 2.74631 10.2221 2.93377C10.0347 3.12124 9.92934 3.37549 9.92934 3.64061C9.92934 5.33196 7.88412 6.17964 6.68758 4.9831C6.59536 4.88762 6.48506 4.81147 6.3631 4.75908C6.24115 4.70669 6.10998 4.67912 5.97725 4.67796C5.84452 4.67681 5.71289 4.7021 5.59004 4.75236C5.46719 4.80263 5.35558 4.87685 5.26172 4.97071C5.16787 5.06456 5.09364 5.17617 5.04338 5.29902C4.99312 5.42187 4.96783 5.5535 4.96898 5.68623C4.97013 5.81896 4.99771 5.95013 5.0501 6.07209C5.10249 6.19404 5.17864 6.30435 5.27411 6.39656C6.47066 7.5931 5.62398 9.63832 3.93162 9.63832C3.66651 9.63832 3.41225 9.74364 3.22479 9.93111C3.03732 10.1186 2.93201 10.3728 2.93201 10.6379C2.93201 10.9031 3.03732 11.1573 3.22479 11.3448C3.41225 11.5322 3.66651 11.6376 3.93162 11.6376C5.62298 11.6376 6.47066 13.6828 5.27411 14.8793C5.09202 15.0679 4.99127 15.3204 4.99355 15.5825C4.99582 15.8446 5.10095 16.0953 5.28629 16.2806C5.47163 16.466 5.72234 16.5711 5.98444 16.5734C6.24654 16.5756 6.49904 16.4749 6.68758 16.2928C7.88412 15.0962 9.92934 15.9429 9.92934 17.6353C9.92934 17.9004 10.0347 18.1547 10.2221 18.3421C10.4096 18.5296 10.6638 18.6349 10.929 18.6349C11.1941 18.6349 11.4483 18.5296 11.6358 18.3421C11.8233 18.1547 11.9286 17.9004 11.9286 17.6353C11.9286 15.9439 13.9738 15.0962 15.1703 16.2928C15.2626 16.3883 15.3729 16.4644 15.4948 16.5168C15.6168 16.5692 15.7479 16.5968 15.8807 16.5979C16.0134 16.5991 16.145 16.5738 16.2679 16.5235C16.3907 16.4733 16.5023 16.399 16.5962 16.3052C16.6901 16.2113 16.7643 16.0997 16.8145 15.9769C16.8648 15.854 16.8901 15.7224 16.8889 15.5897C16.8878 15.4569 16.8602 15.3258 16.8078 15.2038C16.7554 15.0818 16.6793 14.9715 16.5838 14.8793C15.3873 13.6828 16.2339 11.6376 17.9263 11.6376C18.1914 11.6376 18.4457 11.5322 18.6331 11.3448C18.8206 11.1573 18.9259 10.9031 18.9259 10.6379C18.9259 10.3728 18.8206 10.1186 18.6331 9.93111C18.4457 9.74364 18.1914 9.63832 17.9263 9.63832C16.2349 9.63832 15.3873 7.5931 16.5838 6.39656C16.7659 6.20803 16.8667 5.95552 16.8644 5.69343C16.8621 5.43133 16.757 5.18061 16.5716 4.99527C16.3863 4.80994 16.1356 4.70481 15.8735 4.70253C15.6114 4.70025 15.3589 4.80101 15.1703 4.9831C13.9738 6.17964 11.9286 5.33296 11.9286 3.64061C11.9286 3.37549 11.8233 3.12124 11.6358 2.93377C11.4483 2.74631 11.1941 2.64099 10.929 2.64099ZM7.9381 3.41769C7.99338 2.66225 8.33249 1.95572 8.88729 1.44002C9.4421 0.924333 10.1715 0.637695 10.929 0.637695C11.6864 0.637695 12.4158 0.924333 12.9706 1.44002C13.5254 1.95572 13.8645 2.66225 13.9198 3.41769C14.4934 2.92506 15.2319 2.66729 15.9875 2.69598C16.743 2.72467 17.4599 3.0377 17.9945 3.57241C18.529 4.10712 18.8419 4.82403 18.8704 5.57959C18.8989 6.33516 18.641 7.07361 18.1482 7.64708C18.9037 7.70224 19.6103 8.04122 20.126 8.59594C20.6418 9.15066 20.9286 9.88002 20.9287 10.6375C20.9288 11.3949 20.6423 12.1244 20.1267 12.6793C19.6111 13.2342 18.9046 13.5734 18.1492 13.6288C18.6418 14.2024 18.8996 14.9409 18.8709 15.6965C18.8422 16.452 18.5292 17.1689 17.9945 17.7034C17.4598 18.238 16.7429 18.5509 15.9873 18.5794C15.2317 18.6079 14.4933 18.35 13.9198 17.8572C13.8645 18.6126 13.5254 19.3192 12.9706 19.8349C12.4158 20.3506 11.6864 20.6372 10.929 20.6372C10.1715 20.6372 9.4421 20.3506 8.88729 19.8349C8.33249 19.3192 7.99338 18.6126 7.9381 17.8572C7.36462 18.35 6.62618 18.6079 5.87061 18.5794C5.11505 18.5509 4.39814 18.238 3.86343 17.7034C3.32872 17.1689 3.01568 16.452 2.98699 15.6965C2.9583 14.9409 3.21608 14.2024 3.70871 13.6288C2.95327 13.5735 2.24673 13.2344 1.73104 12.6796C1.21535 12.1248 0.928711 11.3954 0.928711 10.6379C0.928711 9.88048 1.21535 9.15108 1.73104 8.59628C2.24673 8.04147 2.95327 7.70236 3.70871 7.64708C3.21458 7.07371 2.95554 6.33469 2.98358 5.57829C3.01161 4.82189 3.32464 4.10407 3.85987 3.56885C4.39509 3.03363 5.11291 2.7206 5.8693 2.69256C6.6257 2.66453 7.36473 2.92356 7.9381 3.41769Z" fill="#0D0D0D"/>
<path d="M10.9288 8.6387C10.3986 8.6387 9.89009 8.84934 9.51516 9.22427C9.14023 9.5992 8.9296 10.1077 8.9296 10.6379C8.9296 11.1682 9.14023 11.6767 9.51516 12.0516C9.89009 12.4265 10.3986 12.6372 10.9288 12.6372C11.4591 12.6372 11.9676 12.4265 12.3425 12.0516C12.7174 11.6767 12.9281 11.1682 12.9281 10.6379C12.9281 10.1077 12.7174 9.5992 12.3425 9.22427C11.9676 8.84934 11.4591 8.6387 10.9288 8.6387ZM8.10191 7.81102C8.47076 7.42912 8.91197 7.12451 9.3998 6.91496C9.88763 6.7054 10.4123 6.5951 10.9432 6.59048C11.4741 6.58587 12.0007 6.68704 12.4921 6.88808C12.9835 7.08913 13.4299 7.38603 13.8053 7.76146C14.1807 8.13689 14.4776 8.58332 14.6787 9.07472C14.8797 9.56612 14.9809 10.0926 14.9763 10.6236C14.9717 11.1545 14.8614 11.6791 14.6518 12.167C14.4423 12.6548 14.1377 13.096 13.7558 13.4649C13.0016 14.1932 11.9916 14.5962 10.9432 14.5871C9.89484 14.578 8.89197 14.1575 8.15062 13.4162C7.40927 12.6748 6.98875 11.6719 6.97964 10.6236C6.97053 9.57517 7.37356 8.56514 8.10191 7.81102Z" fill="#0D0D0D"/>
</svg>
