<svg width="56" height="55" viewBox="0 0 56 55" fill="none" xmlns="http://www.w3.org/2000/svg">
<path d="M0.265803 28.0979L4.2468 31.3217C4.29627 31.3618 4.3584 31.3816 4.4204 31.3816C4.49079 31.3816 4.56079 31.356 4.61181 31.3058C4.70752 31.2114 4.69964 31.0654 4.59386 30.9799L4.55201 30.946C2.53282 29.3108 2.38517 26.2828 4.2357 24.4589C4.33153 24.3645 4.32353 24.2185 4.21774 24.133C4.11222 24.0474 3.94883 24.0547 3.85299 24.149L0.244362 27.7057C0.141931 27.8068 0.152869 28.005 0.264015 28.0965C0.264608 28.097 0.265204 28.0974 0.265803 28.0979Z" fill="black" fill-opacity="0.3"/>
<path d="M27.9952 54.6466L31.5247 50.878C31.5687 50.8312 31.5903 50.7724 31.5903 50.7137C31.5903 50.647 31.5623 50.5808 31.5073 50.5325C31.404 50.4419 31.2442 50.4493 31.1505 50.5495C29.2582 52.5699 26.0921 52.7141 24.0111 50.8885C23.9077 50.7978 23.7479 50.8054 23.6543 50.9055C23.5606 51.0054 23.5685 51.1601 23.6719 51.2508L27.5658 54.6669C27.6822 54.7688 27.8897 54.7596 27.9952 54.6466Z" fill="black" fill-opacity="0.3"/>
<path d="M54.9221 27.3591L51.2473 24.1354C51.2017 24.0952 51.1443 24.0755 51.0871 24.0755C51.0221 24.0755 50.9575 24.1011 50.9104 24.1513C50.822 24.2457 50.8293 24.3916 50.927 24.4771C52.8537 26.1676 53.0097 29.1273 51.2576 30.9982C51.1691 31.0926 51.1765 31.2385 51.2741 31.324C51.3716 31.4096 51.5224 31.4024 51.6108 31.308L54.9419 27.7513C55.0391 27.6473 55.0293 27.4529 54.9221 27.3591Z" fill="black" fill-opacity="0.3"/>
<path d="M27.1152 0.824537L22.9858 5.23364C22.9344 5.28843 22.9091 5.35723 22.9091 5.4259C22.9091 5.50386 22.9419 5.5814 23.0062 5.6379C23.1271 5.7439 23.3141 5.73517 23.4236 5.61802C25.6376 3.25415 29.3418 3.08546 31.7765 5.22134C31.8975 5.32748 32.0844 5.31861 32.194 5.20145C32.3036 5.08458 32.2943 4.90362 32.1734 4.79748L27.6176 0.800791C27.4815 0.681542 27.2387 0.692264 27.1152 0.824537Z" fill="black" fill-opacity="0.3"/>
</svg>
